<svg width="20" height="18" viewBox="0 0 20 18" fill="none" xmlns="http://www.w3.org/2000/svg">
<path d="M5 6H10M19 17L15.6757 15.3378C15.4237 15.2118 15.2977 15.1488 15.1656 15.1044C15.0484 15.065 14.9277 15.0365 14.8052 15.0193C14.6672 15 14.5263 15 14.2446 15H5.8C4.11984 15 3.27976 15 2.63803 14.673C2.07354 14.3854 1.6146 13.9265 1.32698 13.362C1 12.7202 1 11.8802 1 10.2V5.8C1 4.11984 1 3.27976 1.32698 2.63803C1.6146 2.07354 2.07354 1.6146 2.63803 1.32698C3.27976 1 4.11984 1 5.8 1H14.2C15.8802 1 16.7202 1 17.362 1.32698C17.9265 1.6146 18.3854 2.07354 18.673 2.63803C19 3.27976 19 4.11984 19 5.8V17Z" stroke="#0176E4" stroke-width="2" stroke-linecap="round" stroke-linejoin="round"/>
</svg>
