<svg width="21" height="21" viewBox="0 0 21 21" fill="none" xmlns="http://www.w3.org/2000/svg">
<path d="M14.4389 3.56134L17.2634 6.39368M1.98633 19.0082C2.11227 18.1266 2.18246 17.2095 2.47662 16.3643C2.64608 15.8775 2.87757 15.4145 3.16539 14.9868C3.48974 14.5048 3.90952 14.085 4.74907 13.2455L16.4104 1.58982C17.1914 0.808767 18.4578 0.808765 19.2388 1.58981C20.0199 2.37086 20.0199 3.63719 19.2388 4.41824L7.39796 16.2535C6.68661 16.9648 6.33093 17.3205 5.92808 17.6085C5.57044 17.8642 5.18578 18.0798 4.78102 18.2515C3.89717 18.6263 2.9176 18.7839 1.98633 19.0082Z" stroke="#2B2B2B" stroke-width="2" stroke-linejoin="round"/>
</svg>
