<svg width="383" height="73" viewBox="0 0 383 73" fill="none" xmlns="http://www.w3.org/2000/svg">
<g filter="url(#filter0_d_1439_11165)">
<rect x="168" y="8" width="48" height="48" rx="20" fill="#0176E4"/>
<g clip-path="url(#clip0_1439_11165)">
<path d="M195.559 32.7058C195.414 32.5337 195.232 32.5003 195.036 32.6188C194.923 32.6866 194.817 32.7656 194.71 32.8426C194.28 33.1484 193.85 33.4552 193.421 33.7621C193.401 33.7763 193.382 33.7904 193.359 33.7996C193.317 33.8178 193.282 33.8066 193.254 33.7692C193.226 33.7307 193.23 33.6922 193.265 33.6608C193.295 33.6345 193.328 33.6112 193.36 33.5879C193.783 33.2861 194.208 32.9853 194.63 32.6815C194.74 32.6025 194.856 32.5296 194.958 32.4395C195.148 32.2734 195.151 31.999 194.908 31.8207C194.821 31.7569 194.721 31.7235 194.614 31.7569C194.543 31.7792 194.473 31.8116 194.412 31.8582C193.949 32.2086 193.465 32.5276 192.999 32.8719C192.941 32.9145 192.882 32.957 192.823 32.9965C192.774 33.0279 192.721 33.0188 192.696 32.9783C192.667 32.9307 192.685 32.8932 192.725 32.8638C192.776 32.8264 192.829 32.7899 192.881 32.7524C193.175 32.5377 193.467 32.321 193.768 32.1165C193.983 31.9706 194.188 31.8106 194.399 31.6587C194.502 31.5848 194.573 31.3377 194.508 31.1949C194.407 30.9751 194.123 30.8972 193.918 31.0298C193.778 31.121 193.645 31.2243 193.508 31.3225C193.193 31.5483 192.878 31.7742 192.563 32C192.472 32.0648 192.381 32.1296 192.289 32.1934C192.237 32.2279 192.176 32.2218 192.147 32.1843C192.115 32.1408 192.13 32.084 192.187 32.0405C192.197 32.0334 192.207 32.0273 192.217 32.0202C192.3 31.9635 192.383 31.9089 192.465 31.8511C192.8 31.6131 193.138 31.3772 193.472 31.1351C193.604 31.0389 193.749 30.9579 193.864 30.8394C193.978 30.723 194.027 30.5923 193.962 30.4232C193.871 30.1822 193.598 30.0931 193.393 30.2176C193.29 30.2804 193.198 30.3574 193.099 30.4252C192.84 30.6055 192.582 30.7878 192.324 30.9701C191.962 31.2263 191.601 31.4835 191.237 31.7397C190.957 31.9382 190.674 32.1347 190.394 32.3332C190.311 32.3919 190.314 32.3929 190.361 32.4861C190.538 32.8385 190.75 33.1707 190.915 33.5292C191.036 33.7925 191.03 34.0436 190.841 34.2867C190.566 34.6431 190.025 34.6411 189.749 34.234C189.698 34.1581 189.658 34.073 189.614 33.992C189.518 33.8158 189.429 33.6345 189.323 33.4644C189.202 33.2679 188.94 33.2638 188.828 33.4522C188.762 33.5606 188.779 33.679 188.838 33.7864C189 34.0821 189.162 34.3788 189.327 34.6725C189.589 35.1383 189.837 35.6123 190.099 36.0771C190.223 36.2969 190.296 36.5247 190.316 36.7698V37.1688C190.316 39.4403 188.107 41.3138 185.835 41.3138C183.459 41.3138 181.375 39.3775 181.375 37.1688V26.819C181.375 25.8013 180.619 24.9759 179.687 24.9759C178.755 24.9759 178 25.8013 178 26.819V37.1698C178 41.414 181.588 45 185.835 45C189.398 45 192.497 42.4905 193.416 39.1861C193.416 39.1861 193.416 39.1861 193.417 39.1861C193.417 39.1851 193.417 39.1851 193.417 39.1841C193.596 38.539 193.692 37.8635 193.692 37.1698V36.8528C193.753 36.1277 193.791 35.2953 193.79 35.0442C193.79 34.8335 193.774 34.5368 193.853 34.471C194.12 34.2482 194.354 34.073 194.636 33.8694C194.902 33.678 195.17 33.4897 195.436 33.2973C195.481 33.2649 195.524 33.2264 195.56 33.1849C195.675 33.0512 195.673 32.8405 195.559 32.7058Z" fill="white"/>
<path d="M198.166 19C194.214 19 190.832 22.0877 190.364 25.9238C190.364 25.9238 190.364 25.9238 190.363 25.9238C190.363 25.9299 190.362 25.937 190.361 25.9431C190.327 26.2276 190.309 26.5152 190.308 26.8069C190.293 27.3993 190.304 27.9907 190.308 28.5842V28.6865C190.305 28.7594 190.287 28.8252 190.25 28.889C190.04 29.2505 189.833 29.6131 189.625 29.9756C189.379 30.404 189.144 30.8394 188.889 31.2628C188.848 31.3316 188.813 31.4035 188.791 31.4825C188.732 31.6881 188.793 31.8724 188.889 32.0496C189.14 32.5084 189.385 32.9692 189.627 33.433C189.736 33.6436 189.85 33.8512 189.966 34.0578C190.043 34.1955 190.163 34.2867 190.32 34.2958C190.619 34.312 190.878 33.9555 190.763 33.7115C190.73 33.6426 190.695 33.5747 190.66 33.5079C190.467 33.1413 190.275 32.7747 190.08 32.4091C190.016 32.2876 190.015 32.2846 190.123 32.2066C190.51 31.9291 190.897 31.6516 191.283 31.3731C191.967 30.8789 192.651 30.3837 193.333 29.8865C193.575 29.7103 193.693 29.7194 193.691 29.4713C193.689 29.2232 193.684 28.9822 193.682 28.7401V27.9624C193.683 27.8874 193.683 27.8125 193.682 27.7376V26.8312C193.682 24.5597 195.891 22.6862 198.164 22.6862C200.54 22.6862 202.624 24.6225 202.624 26.8312V37.182C202.624 38.1997 203.379 39.0251 204.312 39.0251C205.244 39.0251 206 38.1997 206 37.182V26.8302C206.001 22.586 202.413 19 198.166 19Z" fill="white"/>
</g>
<path fill-rule="evenodd" clip-rule="evenodd" d="M146.745 13C155.205 13 161 24.5394 161 33V33V34C161 50.5685 174.431 64 191 64H192C208.569 64 222 50.5685 222 34V33V33C222 24.5394 227.795 13 236.255 13H359C370.046 13 379 21.9543 379 33V53C379 64.0457 370.046 73 359 73H24C12.9543 73 4 64.0457 4 53V33C4 21.9543 12.9543 13 24 13H146.745Z" fill="#0176E4"/>
<path d="M45.5 38V37.25C45.0858 37.25 44.75 37.5858 44.75 38H45.5ZM49.5 38H50.25C50.25 37.5858 49.9142 37.25 49.5 37.25V38ZM48.75 44C48.75 44.4142 49.0858 44.75 49.5 44.75C49.9142 44.75 50.25 44.4142 50.25 44H48.75ZM44.75 44C44.75 44.4142 45.0858 44.75 45.5 44.75C45.9142 44.75 46.25 44.4142 46.25 44H44.75ZM55.25 32.7781C55.25 32.3639 54.9142 32.0281 54.5 32.0281C54.0858 32.0281 53.75 32.3639 53.75 32.7781H55.25ZM41.25 32.7774C41.25 32.3632 40.9142 32.0274 40.5 32.0274C40.0858 32.0274 39.75 32.3632 39.75 32.7774H41.25ZM42.138 43.673L42.4785 43.0048L42.4785 43.0048L42.138 43.673ZM40.827 42.362L40.1587 42.7025L40.1587 42.7025L40.827 42.362ZM54.173 42.362L53.5048 42.0215L53.5048 42.0215L54.173 42.362ZM52.862 43.673L52.5215 43.0048L52.5215 43.0048L52.862 43.673ZM51.0668 28.964L50.5093 29.4657L50.5093 29.4657L51.0668 28.964ZM55.9426 35.5018C56.2197 35.8096 56.6939 35.8345 57.0018 35.5574C57.3096 35.2803 57.3346 34.8061 57.0574 34.4982L55.9426 35.5018ZM37.9425 34.4983C37.6654 34.8062 37.6904 35.2804 37.9983 35.5575C38.3062 35.8346 38.7804 35.8096 39.0575 35.5017L37.9425 34.4983ZM43.9311 28.9645L44.4887 29.4662L43.9311 28.9645ZM48.4856 26.6514L48.239 27.3597L48.239 27.3597L48.4856 26.6514ZM46.5119 26.6516L46.7587 27.3598L46.7587 27.3598L46.5119 26.6516ZM45.5 38.75H49.5V37.25H45.5V38.75ZM48.75 38V44H50.25V38H48.75ZM46.25 44V38H44.75V44H46.25ZM53.75 32.7781V39.2H55.25V32.7781H53.75ZM49.7 43.25H45.3V44.75H49.7V43.25ZM41.25 39.2V32.7774H39.75V39.2H41.25ZM45.3 43.25C44.4475 43.25 43.8533 43.2494 43.3907 43.2116C42.9368 43.1745 42.676 43.1054 42.4785 43.0048L41.7975 44.3413C42.2418 44.5676 42.7219 44.662 43.2685 44.7066C43.8064 44.7506 44.4723 44.75 45.3 44.75V43.25ZM39.75 39.2C39.75 40.0277 39.7494 40.6936 39.7934 41.2315C39.838 41.7781 39.9324 42.2582 40.1587 42.7025L41.4952 42.0215C41.3946 41.8239 41.3255 41.5632 41.2884 41.1093C41.2506 40.6467 41.25 40.0524 41.25 39.2H39.75ZM42.4785 43.0048C42.0552 42.789 41.711 42.4448 41.4952 42.0215L40.1587 42.7025C40.5183 43.4081 41.0919 43.9817 41.7975 44.3413L42.4785 43.0048ZM53.75 39.2C53.75 40.0524 53.7494 40.6467 53.7116 41.1093C53.6745 41.5632 53.6054 41.8239 53.5048 42.0215L54.8413 42.7025C55.0676 42.2582 55.162 41.7781 55.2066 41.2315C55.2506 40.6936 55.25 40.0277 55.25 39.2H53.75ZM49.7 44.75C50.5277 44.75 51.1936 44.7506 51.7315 44.7066C52.2781 44.662 52.7582 44.5676 53.2025 44.3413L52.5215 43.0048C52.324 43.1054 52.0632 43.1745 51.6093 43.2116C51.1467 43.2494 50.5525 43.25 49.7 43.25V44.75ZM53.5048 42.0215C53.289 42.4448 52.9448 42.789 52.5215 43.0048L53.2025 44.3413C53.9081 43.9817 54.4817 43.4081 54.8413 42.7025L53.5048 42.0215ZM50.5093 29.4657L55.9426 35.5018L57.0574 34.4982L51.6242 28.4622L50.5093 29.4657ZM39.0575 35.5017L44.4887 29.4662L43.3736 28.4628L37.9425 34.4983L39.0575 35.5017ZM51.6242 28.4622C51.0151 27.7855 50.5272 27.2425 50.0986 26.8408C49.6644 26.4337 49.2381 26.1193 48.7323 25.9431L48.239 27.3597C48.4608 27.4369 48.7072 27.5924 49.0727 27.9351C49.4439 28.2831 49.8828 28.7697 50.5093 29.4657L51.6242 28.4622ZM44.4887 29.4662C45.1151 28.77 45.5539 28.2834 45.925 27.9353C46.2905 27.5926 46.5369 27.4371 46.7587 27.3598L46.2652 25.9433C45.7594 26.1195 45.3332 26.434 44.899 26.8411C44.4705 27.2429 43.9827 27.786 43.3736 28.4628L44.4887 29.4662ZM48.7323 25.9431C47.9334 25.6649 47.064 25.665 46.2652 25.9433L46.7587 27.3598C47.238 27.1928 47.7597 27.1928 48.239 27.3597L48.7323 25.9431Z" fill="white"/>
<path d="M25.1758 50.4688V59H24.0625V50.4688H25.1758ZM27.918 50.4688V51.3945H21.3262V50.4688H27.918ZM29.6582 53.6562V59H28.5742V52.6602H29.6289L29.6582 53.6562ZM31.6387 52.625L31.6328 53.6328C31.543 53.6133 31.457 53.6016 31.375 53.5977C31.2969 53.5898 31.207 53.5859 31.1055 53.5859C30.8555 53.5859 30.6348 53.625 30.4434 53.7031C30.252 53.7812 30.0898 53.8906 29.957 54.0312C29.8242 54.1719 29.7188 54.3398 29.6406 54.5352C29.5664 54.7266 29.5176 54.9375 29.4941 55.168L29.1895 55.3438C29.1895 54.9609 29.2266 54.6016 29.3008 54.2656C29.3789 53.9297 29.498 53.6328 29.6582 53.375C29.8184 53.1133 30.0215 52.9102 30.2676 52.7656C30.5176 52.6172 30.8145 52.543 31.1582 52.543C31.2363 52.543 31.3262 52.5527 31.4277 52.5723C31.5293 52.5879 31.5996 52.6055 31.6387 52.625ZM36.1445 57.916V54.6523C36.1445 54.4023 36.0938 54.1855 35.9922 54.002C35.8945 53.8145 35.7461 53.6699 35.5469 53.5684C35.3477 53.4668 35.1016 53.416 34.8086 53.416C34.5352 53.416 34.2949 53.4629 34.0879 53.5566C33.8848 53.6504 33.7246 53.7734 33.6074 53.9258C33.4941 54.0781 33.4375 54.2422 33.4375 54.418H32.3535C32.3535 54.1914 32.4121 53.9668 32.5293 53.7441C32.6465 53.5215 32.8145 53.3203 33.0332 53.1406C33.2559 52.957 33.5215 52.8125 33.8301 52.707C34.1426 52.5977 34.4902 52.543 34.873 52.543C35.334 52.543 35.7402 52.6211 36.0918 52.7773C36.4473 52.9336 36.7246 53.1699 36.9238 53.4863C37.127 53.7988 37.2285 54.1914 37.2285 54.6641V57.6172C37.2285 57.8281 37.2461 58.0527 37.2812 58.291C37.3203 58.5293 37.377 58.7344 37.4512 58.9062V59H36.3203C36.2656 58.875 36.2227 58.709 36.1914 58.502C36.1602 58.291 36.1445 58.0957 36.1445 57.916ZM36.332 55.1562L36.3438 55.918H35.248C34.9395 55.918 34.6641 55.9434 34.4219 55.9941C34.1797 56.041 33.9766 56.1133 33.8125 56.2109C33.6484 56.3086 33.5234 56.4316 33.4375 56.5801C33.3516 56.7246 33.3086 56.8945 33.3086 57.0898C33.3086 57.2891 33.3535 57.4707 33.4434 57.6348C33.5332 57.7988 33.668 57.9297 33.8477 58.0273C34.0312 58.1211 34.2559 58.168 34.5215 58.168C34.8535 58.168 35.1465 58.0977 35.4004 57.957C35.6543 57.8164 35.8555 57.6445 36.0039 57.4414C36.1562 57.2383 36.2383 57.041 36.25 56.8496L36.7129 57.3711C36.6855 57.5352 36.6113 57.7168 36.4902 57.916C36.3691 58.1152 36.207 58.3066 36.0039 58.4902C35.8047 58.6699 35.5664 58.8203 35.2891 58.9414C35.0156 59.0586 34.707 59.1172 34.3633 59.1172C33.9336 59.1172 33.5566 59.0332 33.2324 58.8652C32.9121 58.6973 32.6621 58.4727 32.4824 58.1914C32.3066 57.9062 32.2188 57.5879 32.2188 57.2363C32.2188 56.8965 32.2852 56.5977 32.418 56.3398C32.5508 56.0781 32.7422 55.8613 32.9922 55.6895C33.2422 55.5137 33.543 55.3809 33.8945 55.291C34.2461 55.2012 34.6387 55.1562 35.0723 55.1562H36.332ZM40.0176 54.0137V59H38.9336V52.6602H39.959L40.0176 54.0137ZM39.7598 55.5898L39.3086 55.5723C39.3125 55.1387 39.377 54.7383 39.502 54.3711C39.627 54 39.8027 53.6777 40.0293 53.4043C40.2559 53.1309 40.5254 52.9199 40.8379 52.7715C41.1543 52.6191 41.5039 52.543 41.8867 52.543C42.1992 52.543 42.4805 52.5859 42.7305 52.6719C42.9805 52.7539 43.1934 52.8867 43.3691 53.0703C43.5488 53.2539 43.6855 53.4922 43.7793 53.7852C43.873 54.0742 43.9199 54.4277 43.9199 54.8457V59H42.8301V54.834C42.8301 54.502 42.7812 54.2363 42.6836 54.0371C42.5859 53.834 42.4434 53.6875 42.2559 53.5977C42.0684 53.5039 41.8379 53.457 41.5645 53.457C41.2949 53.457 41.0488 53.5137 40.8262 53.627C40.6074 53.7402 40.418 53.8965 40.2578 54.0957C40.1016 54.2949 39.9785 54.5234 39.8887 54.7812C39.8027 55.0352 39.7598 55.3047 39.7598 55.5898ZM49.6738 52.6602H50.6582V58.8652C50.6582 59.4238 50.5449 59.9004 50.3184 60.2949C50.0918 60.6895 49.7754 60.9883 49.3691 61.1914C48.9668 61.3984 48.502 61.502 47.9746 61.502C47.7559 61.502 47.498 61.4668 47.2012 61.3965C46.9082 61.3301 46.6191 61.2148 46.334 61.0508C46.0527 60.8906 45.8164 60.6738 45.625 60.4004L46.1934 59.7559C46.459 60.0762 46.7363 60.2988 47.0254 60.4238C47.3184 60.5488 47.6074 60.6113 47.8926 60.6113C48.2363 60.6113 48.5332 60.5469 48.7832 60.418C49.0332 60.2891 49.2266 60.0977 49.3633 59.8438C49.5039 59.5938 49.5742 59.2852 49.5742 58.918V54.0547L49.6738 52.6602ZM45.3086 55.9004V55.7773C45.3086 55.293 45.3652 54.8535 45.4785 54.459C45.5957 54.0605 45.7617 53.7188 45.9766 53.4336C46.1953 53.1484 46.459 52.9297 46.7676 52.7773C47.0762 52.6211 47.4238 52.543 47.8105 52.543C48.209 52.543 48.5566 52.6133 48.8535 52.7539C49.1543 52.8906 49.4082 53.0918 49.6152 53.3574C49.8262 53.6191 49.9922 53.9355 50.1133 54.3066C50.2344 54.6777 50.3184 55.0977 50.3652 55.5664V56.1055C50.3223 56.5703 50.2383 56.9883 50.1133 57.3594C49.9922 57.7305 49.8262 58.0469 49.6152 58.3086C49.4082 58.5703 49.1543 58.7715 48.8535 58.9121C48.5527 59.0488 48.2012 59.1172 47.7988 59.1172C47.4199 59.1172 47.0762 59.0371 46.7676 58.877C46.4629 58.7168 46.2012 58.4922 45.9824 58.2031C45.7637 57.9141 45.5957 57.5742 45.4785 57.1836C45.3652 56.7891 45.3086 56.3613 45.3086 55.9004ZM46.3926 55.7773V55.9004C46.3926 56.2168 46.4238 56.5137 46.4863 56.791C46.5527 57.0684 46.6523 57.3125 46.7852 57.5234C46.9219 57.7344 47.0957 57.9004 47.3066 58.0215C47.5176 58.1387 47.7695 58.1973 48.0625 58.1973C48.4219 58.1973 48.7188 58.1211 48.9531 57.9688C49.1875 57.8164 49.373 57.6152 49.5098 57.3652C49.6504 57.1152 49.7598 56.8438 49.8379 56.5508V55.1387C49.7949 54.9238 49.7285 54.7168 49.6387 54.5176C49.5527 54.3145 49.4395 54.1348 49.2988 53.9785C49.1621 53.8184 48.9922 53.6914 48.7891 53.5977C48.5859 53.5039 48.3477 53.457 48.0742 53.457C47.7773 53.457 47.5215 53.5195 47.3066 53.6445C47.0957 53.7656 46.9219 53.9336 46.7852 54.1484C46.6523 54.3594 46.5527 54.6055 46.4863 54.8867C46.4238 55.1641 46.3926 55.4609 46.3926 55.7773ZM57.8184 58.2266C58.0762 58.2266 58.3145 58.1738 58.5332 58.0684C58.752 57.9629 58.9316 57.8184 59.0723 57.6348C59.2129 57.4473 59.293 57.2344 59.3125 56.9961H60.3438C60.3242 57.3711 60.1973 57.7207 59.9629 58.0449C59.7324 58.3652 59.4297 58.625 59.0547 58.8242C58.6797 59.0195 58.2676 59.1172 57.8184 59.1172C57.3418 59.1172 56.9258 59.0332 56.5703 58.8652C56.2188 58.6973 55.9258 58.4668 55.6914 58.1738C55.4609 57.8809 55.2871 57.5449 55.1699 57.166C55.0566 56.7832 55 56.3789 55 55.9531V55.707C55 55.2812 55.0566 54.8789 55.1699 54.5C55.2871 54.1172 55.4609 53.7793 55.6914 53.4863C55.9258 53.1934 56.2188 52.9629 56.5703 52.7949C56.9258 52.627 57.3418 52.543 57.8184 52.543C58.3145 52.543 58.748 52.6445 59.1191 52.8477C59.4902 53.0469 59.7812 53.3203 59.9922 53.668C60.207 54.0117 60.3242 54.4023 60.3438 54.8398H59.3125C59.293 54.5781 59.2188 54.3418 59.0898 54.1309C58.9648 53.9199 58.793 53.752 58.5742 53.627C58.3594 53.498 58.1074 53.4336 57.8184 53.4336C57.4863 53.4336 57.207 53.5 56.9805 53.6328C56.7578 53.7617 56.5801 53.9375 56.4473 54.1602C56.3184 54.3789 56.2246 54.623 56.166 54.8926C56.1113 55.1582 56.084 55.4297 56.084 55.707V55.9531C56.084 56.2305 56.1113 56.5039 56.166 56.7734C56.2207 57.043 56.3125 57.2871 56.4414 57.5059C56.5742 57.7246 56.752 57.9004 56.9746 58.0332C57.2012 58.1621 57.4824 58.2266 57.8184 58.2266ZM62.6465 50V59H61.5625V50H62.6465ZM62.3887 55.5898L61.9375 55.5723C61.9414 55.1387 62.0059 54.7383 62.1309 54.3711C62.2559 54 62.4316 53.6777 62.6582 53.4043C62.8848 53.1309 63.1543 52.9199 63.4668 52.7715C63.7832 52.6191 64.1328 52.543 64.5156 52.543C64.8281 52.543 65.1094 52.5859 65.3594 52.6719C65.6094 52.7539 65.8223 52.8867 65.998 53.0703C66.1777 53.2539 66.3145 53.4922 66.4082 53.7852C66.502 54.0742 66.5488 54.4277 66.5488 54.8457V59H65.459V54.834C65.459 54.502 65.4102 54.2363 65.3125 54.0371C65.2148 53.834 65.0723 53.6875 64.8848 53.5977C64.6973 53.5039 64.4668 53.457 64.1934 53.457C63.9238 53.457 63.6777 53.5137 63.4551 53.627C63.2363 53.7402 63.0469 53.8965 62.8867 54.0957C62.7305 54.2949 62.6074 54.5234 62.5176 54.7812C62.4316 55.0352 62.3887 55.3047 62.3887 55.5898ZM72.0508 57.5352V52.6602H73.1406V59H72.1035L72.0508 57.5352ZM72.2559 56.1992L72.707 56.1875C72.707 56.6094 72.6621 57 72.5723 57.3594C72.4863 57.7148 72.3457 58.0234 72.1504 58.2852C71.9551 58.5469 71.6992 58.752 71.3828 58.9004C71.0664 59.0449 70.6816 59.1172 70.2285 59.1172C69.9199 59.1172 69.6367 59.0723 69.3789 58.9824C69.125 58.8926 68.9062 58.7539 68.7227 58.5664C68.5391 58.3789 68.3965 58.1348 68.2949 57.834C68.1973 57.5332 68.1484 57.1719 68.1484 56.75V52.6602H69.2324V56.7617C69.2324 57.0469 69.2637 57.2832 69.3262 57.4707C69.3926 57.6543 69.4805 57.8008 69.5898 57.9102C69.7031 58.0156 69.8281 58.0898 69.9648 58.1328C70.1055 58.1758 70.25 58.1973 70.3984 58.1973C70.8594 58.1973 71.2246 58.1094 71.4941 57.9336C71.7637 57.7539 71.957 57.5137 72.0742 57.2129C72.1953 56.9082 72.2559 56.5703 72.2559 56.1992ZM71.0781 51.6289H70.2988L70.293 50.7383C70.4922 50.7266 70.6543 50.707 70.7793 50.6797C70.9043 50.6484 70.9961 50.6035 71.0547 50.5449C71.1133 50.4824 71.1426 50.4004 71.1426 50.2988C71.1426 50.2168 71.1172 50.1484 71.0664 50.0938C71.0156 50.0352 70.9453 49.9883 70.8555 49.9531C70.7656 49.9141 70.6621 49.8867 70.5449 49.8711C70.4277 49.8555 70.3027 49.8477 70.1699 49.8477L70.2109 49.2266C70.5 49.2266 70.7539 49.252 70.9727 49.3027C71.1953 49.3535 71.3809 49.4277 71.5293 49.5254C71.6816 49.623 71.7949 49.7402 71.8691 49.877C71.9473 50.0098 71.9863 50.1582 71.9863 50.3223C71.9863 50.6191 71.8926 50.8359 71.7051 50.9727C71.5176 51.1055 71.3105 51.1875 71.084 51.2188L71.0781 51.6289Z" fill="white"/>
<path d="M111.44 39.0008L112.111 38.6669L112.111 38.6669L111.44 39.0008ZM110.505 44L109.812 43.7117C109.716 43.9431 109.742 44.2075 109.881 44.4161C110.02 44.6247 110.254 44.75 110.505 44.75V44ZM127.754 35C127.754 39.5563 124.06 43.25 119.504 43.25V44.75C124.889 44.75 129.254 40.3848 129.254 35H127.754ZM111.254 35C111.254 30.4437 114.948 26.75 119.504 26.75V25.25C114.119 25.25 109.754 29.6152 109.754 35H111.254ZM119.504 26.75C124.06 26.75 127.754 30.4437 127.754 35H129.254C129.254 29.6152 124.889 25.25 119.504 25.25V26.75ZM112.111 38.6669C111.563 37.5632 111.254 36.3187 111.254 35H109.754C109.754 36.5556 110.119 38.0281 110.768 39.3346L112.111 38.6669ZM119.504 43.25C119.5 43.25 119.496 43.25 119.492 43.25C119.488 43.25 119.484 43.25 119.48 43.25C119.476 43.25 119.472 43.25 119.468 43.25C119.464 43.25 119.459 43.25 119.455 43.25C119.451 43.25 119.447 43.25 119.443 43.25C119.439 43.25 119.434 43.25 119.43 43.25C119.426 43.25 119.422 43.25 119.418 43.25C119.413 43.25 119.409 43.25 119.405 43.25C119.401 43.25 119.396 43.25 119.392 43.25C119.388 43.25 119.383 43.25 119.379 43.25C119.375 43.25 119.37 43.25 119.366 43.25C119.362 43.25 119.357 43.25 119.353 43.25C119.348 43.25 119.344 43.25 119.339 43.25C119.335 43.25 119.331 43.25 119.326 43.25C119.322 43.25 119.317 43.25 119.313 43.25C119.308 43.25 119.303 43.25 119.299 43.25C119.294 43.25 119.29 43.25 119.285 43.25C119.281 43.25 119.276 43.25 119.271 43.25C119.267 43.25 119.262 43.25 119.257 43.25C119.253 43.25 119.248 43.25 119.243 43.25C119.239 43.25 119.234 43.25 119.229 43.25C119.225 43.25 119.22 43.25 119.215 43.25C119.21 43.25 119.206 43.25 119.201 43.25C119.196 43.25 119.191 43.25 119.186 43.25C119.181 43.25 119.177 43.25 119.172 43.25C119.167 43.25 119.162 43.25 119.157 43.25C119.152 43.25 119.147 43.25 119.142 43.25C119.137 43.25 119.133 43.25 119.128 43.25C119.123 43.25 119.118 43.25 119.113 43.25C119.108 43.25 119.103 43.25 119.098 43.25C119.093 43.25 119.088 43.25 119.082 43.25C119.077 43.25 119.072 43.25 119.067 43.25C119.062 43.25 119.057 43.25 119.052 43.25C119.047 43.25 119.042 43.25 119.037 43.25C119.031 43.25 119.026 43.25 119.021 43.25C119.016 43.25 119.011 43.25 119.005 43.25C119 43.25 118.995 43.25 118.99 43.25C118.984 43.25 118.979 43.25 118.974 43.25C118.969 43.25 118.963 43.25 118.958 43.25C118.953 43.25 118.947 43.25 118.942 43.25C118.937 43.25 118.931 43.25 118.926 43.25C118.921 43.25 118.915 43.25 118.91 43.25C118.904 43.25 118.899 43.25 118.894 43.25C118.888 43.25 118.883 43.25 118.877 43.25C118.872 43.25 118.866 43.25 118.861 43.25C118.855 43.25 118.85 43.25 118.844 43.25C118.839 43.25 118.833 43.25 118.828 43.25C118.822 43.25 118.817 43.25 118.811 43.25C118.805 43.25 118.8 43.25 118.794 43.25C118.789 43.25 118.783 43.25 118.777 43.25C118.772 43.25 118.766 43.25 118.76 43.25C118.755 43.25 118.749 43.25 118.743 43.25C118.738 43.25 118.732 43.25 118.726 43.25C118.721 43.25 118.715 43.25 118.709 43.25C118.703 43.25 118.698 43.25 118.692 43.25C118.686 43.25 118.68 43.25 118.674 43.25C118.669 43.25 118.663 43.25 118.657 43.25C118.651 43.25 118.645 43.25 118.639 43.25C118.634 43.25 118.628 43.25 118.622 43.25C118.616 43.25 118.61 43.25 118.604 43.25C118.598 43.25 118.592 43.25 118.586 43.25C118.58 43.25 118.574 43.25 118.569 43.25C118.563 43.25 118.557 43.25 118.551 43.25C118.545 43.25 118.539 43.25 118.533 43.25C118.527 43.25 118.52 43.25 118.514 43.25C118.508 43.25 118.502 43.25 118.496 43.25C118.49 43.25 118.484 43.25 118.478 43.25C118.472 43.25 118.466 43.25 118.46 43.25C118.454 43.25 118.447 43.25 118.441 43.25C118.435 43.25 118.429 43.25 118.423 43.25C118.417 43.25 118.41 43.25 118.404 43.25C118.398 43.25 118.392 43.25 118.386 43.25C118.379 43.25 118.373 43.25 118.367 43.25C118.361 43.25 118.354 43.25 118.348 43.25C118.342 43.25 118.336 43.25 118.329 43.25C118.323 43.25 118.317 43.25 118.31 43.25C118.304 43.25 118.298 43.25 118.291 43.25C118.285 43.25 118.279 43.25 118.272 43.25C118.266 43.25 118.259 43.25 118.253 43.25C118.247 43.25 118.24 43.25 118.234 43.25C118.227 43.25 118.221 43.25 118.215 43.25C118.208 43.25 118.202 43.25 118.195 43.25C118.189 43.25 118.182 43.25 118.176 43.25C118.169 43.25 118.163 43.25 118.156 43.25C118.15 43.25 118.143 43.25 118.137 43.25C118.13 43.25 118.124 43.25 118.117 43.25C118.111 43.25 118.104 43.25 118.097 43.25C118.091 43.25 118.084 43.25 118.078 43.25C118.071 43.25 118.064 43.25 118.058 43.25C118.051 43.25 118.045 43.25 118.038 43.25C118.031 43.25 118.025 43.25 118.018 43.25C118.011 43.25 118.005 43.25 117.998 43.25C117.991 43.25 117.985 43.25 117.978 43.25C117.971 43.25 117.964 43.25 117.958 43.25C117.951 43.25 117.944 43.25 117.937 43.25C117.931 43.25 117.924 43.25 117.917 43.25C117.91 43.25 117.904 43.25 117.897 43.25C117.89 43.25 117.883 43.25 117.876 43.25C117.87 43.25 117.863 43.25 117.856 43.25C117.849 43.25 117.842 43.25 117.835 43.25C117.829 43.25 117.822 43.25 117.815 43.25C117.808 43.25 117.801 43.25 117.794 43.25C117.787 43.25 117.78 43.25 117.774 43.25C117.767 43.25 117.76 43.25 117.753 43.25C117.746 43.25 117.739 43.25 117.732 43.25C117.725 43.25 117.718 43.25 117.711 43.25C117.704 43.25 117.697 43.25 117.69 43.25C117.683 43.25 117.676 43.25 117.669 43.25C117.662 43.25 117.655 43.25 117.648 43.25C117.641 43.25 117.634 43.25 117.627 43.25C117.62 43.25 117.613 43.25 117.606 43.25C117.599 43.25 117.592 43.25 117.585 43.25C117.578 43.25 117.571 43.25 117.563 43.25C117.556 43.25 117.549 43.25 117.542 43.25C117.535 43.25 117.528 43.25 117.521 43.25C117.514 43.25 117.507 43.25 117.499 43.25C117.492 43.25 117.485 43.25 117.478 43.25C117.471 43.25 117.464 43.25 117.456 43.25C117.449 43.25 117.442 43.25 117.435 43.25C117.428 43.25 117.42 43.25 117.413 43.25C117.406 43.25 117.399 43.25 117.392 43.25C117.384 43.25 117.377 43.25 117.37 43.25C117.363 43.25 117.355 43.25 117.348 43.25C117.341 43.25 117.334 43.25 117.326 43.25C117.319 43.25 117.312 43.25 117.304 43.25C117.297 43.25 117.29 43.25 117.283 43.25C117.275 43.25 117.268 43.25 117.261 43.25C117.253 43.25 117.246 43.25 117.239 43.25C117.231 43.25 117.224 43.25 117.217 43.25C117.209 43.25 117.202 43.25 117.195 43.25C117.187 43.25 117.18 43.25 117.172 43.25C117.165 43.25 117.158 43.25 117.15 43.25C117.143 43.25 117.135 43.25 117.128 43.25C117.121 43.25 117.113 43.25 117.106 43.25C117.098 43.25 117.091 43.25 117.084 43.25C117.076 43.25 117.069 43.25 117.061 43.25C117.054 43.25 117.046 43.25 117.039 43.25C117.031 43.25 117.024 43.25 117.016 43.25C117.009 43.25 117.001 43.25 116.994 43.25C116.986 43.25 116.979 43.25 116.971 43.25C116.964 43.25 116.956 43.25 116.949 43.25C116.941 43.25 116.934 43.25 116.926 43.25C116.919 43.25 116.911 43.25 116.904 43.25C116.896 43.25 116.889 43.25 116.881 43.25C116.874 43.25 116.866 43.25 116.858 43.25C116.851 43.25 116.843 43.25 116.836 43.25C116.828 43.25 116.821 43.25 116.813 43.25C116.805 43.25 116.798 43.25 116.79 43.25C116.783 43.25 116.775 43.25 116.767 43.25C116.76 43.25 116.752 43.25 116.745 43.25C116.737 43.25 116.729 43.25 116.722 43.25C116.714 43.25 116.706 43.25 116.699 43.25C116.691 43.25 116.683 43.25 116.676 43.25C116.668 43.25 116.66 43.25 116.653 43.25C116.645 43.25 116.637 43.25 116.63 43.25C116.622 43.25 116.614 43.25 116.607 43.25C116.599 43.25 116.591 43.25 116.584 43.25C116.576 43.25 116.568 43.25 116.561 43.25C116.553 43.25 116.545 43.25 116.537 43.25C116.53 43.25 116.522 43.25 116.514 43.25C116.507 43.25 116.499 43.25 116.491 43.25C116.483 43.25 116.476 43.25 116.468 43.25C116.46 43.25 116.452 43.25 116.445 43.25C116.437 43.25 116.429 43.25 116.421 43.25C116.414 43.25 116.406 43.25 116.398 43.25C116.39 43.25 116.383 43.25 116.375 43.25C116.367 43.25 116.359 43.25 116.351 43.25C116.344 43.25 116.336 43.25 116.328 43.25C116.32 43.25 116.313 43.25 116.305 43.25C116.297 43.25 116.289 43.25 116.281 43.25C116.274 43.25 116.266 43.25 116.258 43.25C116.25 43.25 116.242 43.25 116.234 43.25C116.227 43.25 116.219 43.25 116.211 43.25C116.203 43.25 116.195 43.25 116.187 43.25C116.18 43.25 116.172 43.25 116.164 43.25C116.156 43.25 116.148 43.25 116.14 43.25C116.133 43.25 116.125 43.25 116.117 43.25C116.109 43.25 116.101 43.25 116.093 43.25C116.085 43.25 116.078 43.25 116.07 43.25C116.062 43.25 116.054 43.25 116.046 43.25C116.038 43.25 116.03 43.25 116.022 43.25C116.015 43.25 116.007 43.25 115.999 43.25C115.991 43.25 115.983 43.25 115.975 43.25C115.967 43.25 115.959 43.25 115.951 43.25C115.944 43.25 115.936 43.25 115.928 43.25C115.92 43.25 115.912 43.25 115.904 43.25C115.896 43.25 115.888 43.25 115.88 43.25C115.872 43.25 115.865 43.25 115.857 43.25C115.849 43.25 115.841 43.25 115.833 43.25C115.825 43.25 115.817 43.25 115.809 43.25C115.801 43.25 115.793 43.25 115.785 43.25C115.777 43.25 115.769 43.25 115.762 43.25C115.754 43.25 115.746 43.25 115.738 43.25C115.73 43.25 115.722 43.25 115.714 43.25C115.706 43.25 115.698 43.25 115.69 43.25C115.682 43.25 115.674 43.25 115.666 43.25C115.658 43.25 115.65 43.25 115.643 43.25C115.635 43.25 115.627 43.25 115.619 43.25C115.611 43.25 115.603 43.25 115.595 43.25C115.587 43.25 115.579 43.25 115.571 43.25C115.563 43.25 115.555 43.25 115.547 43.25C115.539 43.25 115.531 43.25 115.523 43.25C115.515 43.25 115.507 43.25 115.499 43.25C115.491 43.25 115.483 43.25 115.476 43.25C115.468 43.25 115.46 43.25 115.452 43.25C115.444 43.25 115.436 43.25 115.428 43.25C115.42 43.25 115.412 43.25 115.404 43.25C115.396 43.25 115.388 43.25 115.38 43.25C115.372 43.25 115.364 43.25 115.356 43.25C115.348 43.25 115.34 43.25 115.332 43.25C115.324 43.25 115.316 43.25 115.308 43.25C115.3 43.25 115.292 43.25 115.284 43.25C115.276 43.25 115.269 43.25 115.261 43.25C115.253 43.25 115.245 43.25 115.237 43.25C115.229 43.25 115.221 43.25 115.213 43.25C115.205 43.25 115.197 43.25 115.189 43.25C115.181 43.25 115.173 43.25 115.165 43.25C115.157 43.25 115.149 43.25 115.141 43.25C115.133 43.25 115.125 43.25 115.117 43.25C115.109 43.25 115.101 43.25 115.093 43.25C115.085 43.25 115.077 43.25 115.069 43.25C115.062 43.25 115.054 43.25 115.046 43.25C115.038 43.25 115.03 43.25 115.022 43.25C115.014 43.25 115.006 43.25 114.998 43.25C114.99 43.25 114.982 43.25 114.974 43.25C114.966 43.25 114.958 43.25 114.95 43.25C114.942 43.25 114.934 43.25 114.926 43.25C114.918 43.25 114.91 43.25 114.903 43.25C114.895 43.25 114.887 43.25 114.879 43.25C114.871 43.25 114.863 43.25 114.855 43.25C114.847 43.25 114.839 43.25 114.831 43.25C114.823 43.25 114.815 43.25 114.807 43.25C114.799 43.25 114.791 43.25 114.783 43.25C114.776 43.25 114.768 43.25 114.76 43.25C114.752 43.25 114.744 43.25 114.736 43.25C114.728 43.25 114.72 43.25 114.712 43.25C114.704 43.25 114.696 43.25 114.688 43.25C114.681 43.25 114.673 43.25 114.665 43.25C114.657 43.25 114.649 43.25 114.641 43.25C114.633 43.25 114.625 43.25 114.617 43.25C114.609 43.25 114.602 43.25 114.594 43.25C114.586 43.25 114.578 43.25 114.57 43.25C114.562 43.25 114.554 43.25 114.546 43.25C114.538 43.25 114.531 43.25 114.523 43.25C114.515 43.25 114.507 43.25 114.499 43.25C114.491 43.25 114.483 43.25 114.476 43.25C114.468 43.25 114.46 43.25 114.452 43.25C114.444 43.25 114.436 43.25 114.428 43.25C114.421 43.25 114.413 43.25 114.405 43.25C114.397 43.25 114.389 43.25 114.381 43.25C114.373 43.25 114.366 43.25 114.358 43.25C114.35 43.25 114.342 43.25 114.334 43.25C114.326 43.25 114.319 43.25 114.311 43.25C114.303 43.25 114.295 43.25 114.287 43.25C114.28 43.25 114.272 43.25 114.264 43.25C114.256 43.25 114.248 43.25 114.241 43.25C114.233 43.25 114.225 43.25 114.217 43.25C114.209 43.25 114.202 43.25 114.194 43.25C114.186 43.25 114.178 43.25 114.171 43.25C114.163 43.25 114.155 43.25 114.147 43.25C114.14 43.25 114.132 43.25 114.124 43.25C114.116 43.25 114.109 43.25 114.101 43.25C114.093 43.25 114.085 43.25 114.078 43.25C114.07 43.25 114.062 43.25 114.054 43.25C114.047 43.25 114.039 43.25 114.031 43.25C114.023 43.25 114.016 43.25 114.008 43.25C114 43.25 113.993 43.25 113.985 43.25C113.977 43.25 113.97 43.25 113.962 43.25C113.954 43.25 113.946 43.25 113.939 43.25C113.931 43.25 113.923 43.25 113.916 43.25C113.908 43.25 113.9 43.25 113.893 43.25C113.885 43.25 113.877 43.25 113.87 43.25C113.862 43.25 113.855 43.25 113.847 43.25C113.839 43.25 113.832 43.25 113.824 43.25C113.816 43.25 113.809 43.25 113.801 43.25C113.794 43.25 113.786 43.25 113.778 43.25C113.771 43.25 113.763 43.25 113.756 43.25C113.748 43.25 113.74 43.25 113.733 43.25C113.725 43.25 113.718 43.25 113.71 43.25C113.703 43.25 113.695 43.25 113.687 43.25C113.68 43.25 113.672 43.25 113.665 43.25C113.657 43.25 113.65 43.25 113.642 43.25C113.635 43.25 113.627 43.25 113.62 43.25C113.612 43.25 113.605 43.25 113.597 43.25C113.589 43.25 113.582 43.25 113.574 43.25C113.567 43.25 113.56 43.25 113.552 43.25C113.545 43.25 113.537 43.25 113.53 43.25C113.522 43.25 113.515 43.25 113.507 43.25C113.5 43.25 113.492 43.25 113.485 43.25C113.477 43.25 113.47 43.25 113.463 43.25C113.455 43.25 113.448 43.25 113.44 43.25C113.433 43.25 113.425 43.25 113.418 43.25C113.411 43.25 113.403 43.25 113.396 43.25C113.389 43.25 113.381 43.25 113.374 43.25C113.366 43.25 113.359 43.25 113.352 43.25C113.344 43.25 113.337 43.25 113.33 43.25C113.322 43.25 113.315 43.25 113.308 43.25C113.3 43.25 113.293 43.25 113.286 43.25C113.278 43.25 113.271 43.25 113.264 43.25C113.256 43.25 113.249 43.25 113.242 43.25C113.235 43.25 113.227 43.25 113.22 43.25C113.213 43.25 113.206 43.25 113.198 43.25C113.191 43.25 113.184 43.25 113.177 43.25C113.169 43.25 113.162 43.25 113.155 43.25C113.148 43.25 113.14 43.25 113.133 43.25C113.126 43.25 113.119 43.25 113.112 43.25C113.105 43.25 113.097 43.25 113.09 43.25C113.083 43.25 113.076 43.25 113.069 43.25C113.062 43.25 113.054 43.25 113.047 43.25C113.04 43.25 113.033 43.25 113.026 43.25C113.019 43.25 113.012 43.25 113.005 43.25C112.997 43.25 112.99 43.25 112.983 43.25C112.976 43.25 112.969 43.25 112.962 43.25C112.955 43.25 112.948 43.25 112.941 43.25C112.934 43.25 112.927 43.25 112.92 43.25C112.913 43.25 112.906 43.25 112.899 43.25C112.892 43.25 112.885 43.25 112.878 43.25C112.871 43.25 112.864 43.25 112.857 43.25C112.85 43.25 112.843 43.25 112.836 43.25C112.829 43.25 112.822 43.25 112.815 43.25C112.808 43.25 112.801 43.25 112.794 43.25C112.787 43.25 112.781 43.25 112.774 43.25C112.767 43.25 112.76 43.25 112.753 43.25C112.746 43.25 112.739 43.25 112.732 43.25C112.726 43.25 112.719 43.25 112.712 43.25C112.705 43.25 112.698 43.25 112.691 43.25C112.685 43.25 112.678 43.25 112.671 43.25C112.664 43.25 112.657 43.25 112.651 43.25C112.644 43.25 112.637 43.25 112.63 43.25C112.624 43.25 112.617 43.25 112.61 43.25C112.603 43.25 112.597 43.25 112.59 43.25C112.583 43.25 112.576 43.25 112.57 43.25C112.563 43.25 112.556 43.25 112.55 43.25C112.543 43.25 112.536 43.25 112.53 43.25C112.523 43.25 112.516 43.25 112.51 43.25C112.503 43.25 112.497 43.25 112.49 43.25C112.483 43.25 112.477 43.25 112.47 43.25C112.464 43.25 112.457 43.25 112.45 43.25C112.444 43.25 112.437 43.25 112.431 43.25C112.424 43.25 112.418 43.25 112.411 43.25C112.405 43.25 112.398 43.25 112.392 43.25C112.385 43.25 112.379 43.25 112.372 43.25C112.366 43.25 112.359 43.25 112.353 43.25C112.346 43.25 112.34 43.25 112.334 43.25C112.327 43.25 112.321 43.25 112.314 43.25C112.308 43.25 112.302 43.25 112.295 43.25C112.289 43.25 112.282 43.25 112.276 43.25C112.27 43.25 112.263 43.25 112.257 43.25C112.251 43.25 112.244 43.25 112.238 43.25C112.232 43.25 112.226 43.25 112.219 43.25C112.213 43.25 112.207 43.25 112.2 43.25C112.194 43.25 112.188 43.25 112.182 43.25C112.175 43.25 112.169 43.25 112.163 43.25C112.157 43.25 112.151 43.25 112.144 43.25C112.138 43.25 112.132 43.25 112.126 43.25C112.12 43.25 112.114 43.25 112.108 43.25C112.101 43.25 112.095 43.25 112.089 43.25C112.083 43.25 112.077 43.25 112.071 43.25C112.065 43.25 112.059 43.25 112.053 43.25C112.047 43.25 112.041 43.25 112.035 43.25C112.029 43.25 112.023 43.25 112.017 43.25C112.011 43.25 112.005 43.25 111.999 43.25C111.993 43.25 111.987 43.25 111.981 43.25C111.975 43.25 111.969 43.25 111.963 43.25C111.957 43.25 111.951 43.25 111.945 43.25C111.939 43.25 111.933 43.25 111.927 43.25C111.922 43.25 111.916 43.25 111.91 43.25C111.904 43.25 111.898 43.25 111.892 43.25C111.887 43.25 111.881 43.25 111.875 43.25C111.869 43.25 111.863 43.25 111.858 43.25C111.852 43.25 111.846 43.25 111.841 43.25C111.835 43.25 111.829 43.25 111.823 43.25C111.818 43.25 111.812 43.25 111.806 43.25C111.801 43.25 111.795 43.25 111.789 43.25C111.784 43.25 111.778 43.25 111.772 43.25C111.767 43.25 111.761 43.25 111.756 43.25C111.75 43.25 111.744 43.25 111.739 43.25C111.733 43.25 111.728 43.25 111.722 43.25C111.717 43.25 111.711 43.25 111.706 43.25C111.7 43.25 111.695 43.25 111.689 43.25C111.684 43.25 111.678 43.25 111.673 43.25C111.668 43.25 111.662 43.25 111.657 43.25C111.651 43.25 111.646 43.25 111.64 43.25C111.635 43.25 111.63 43.25 111.624 43.25C111.619 43.25 111.614 43.25 111.608 43.25C111.603 43.25 111.598 43.25 111.592 43.25C111.587 43.25 111.582 43.25 111.577 43.25C111.571 43.25 111.566 43.25 111.561 43.25C111.556 43.25 111.551 43.25 111.545 43.25C111.54 43.25 111.535 43.25 111.53 43.25C111.525 43.25 111.519 43.25 111.514 43.25C111.509 43.25 111.504 43.25 111.499 43.25C111.494 43.25 111.489 43.25 111.484 43.25C111.479 43.25 111.474 43.25 111.469 43.25C111.464 43.25 111.459 43.25 111.454 43.25C111.449 43.25 111.444 43.25 111.439 43.25C111.434 43.25 111.429 43.25 111.424 43.25C111.419 43.25 111.414 43.25 111.409 43.25C111.404 43.25 111.399 43.25 111.394 43.25C111.389 43.25 111.385 43.25 111.38 43.25C111.375 43.25 111.37 43.25 111.365 43.25C111.36 43.25 111.356 43.25 111.351 43.25C111.346 43.25 111.341 43.25 111.337 43.25C111.332 43.25 111.327 43.25 111.322 43.25C111.318 43.25 111.313 43.25 111.308 43.25C111.304 43.25 111.299 43.25 111.294 43.25C111.29 43.25 111.285 43.25 111.281 43.25C111.276 43.25 111.271 43.25 111.267 43.25C111.262 43.25 111.258 43.25 111.253 43.25C111.249 43.25 111.244 43.25 111.24 43.25C111.235 43.25 111.231 43.25 111.226 43.25C111.222 43.25 111.217 43.25 111.213 43.25C111.208 43.25 111.204 43.25 111.2 43.25C111.195 43.25 111.191 43.25 111.187 43.25C111.182 43.25 111.178 43.25 111.174 43.25C111.169 43.25 111.165 43.25 111.161 43.25C111.156 43.25 111.152 43.25 111.148 43.25C111.144 43.25 111.139 43.25 111.135 43.25C111.131 43.25 111.127 43.25 111.123 43.25C111.118 43.25 111.114 43.25 111.11 43.25C111.106 43.25 111.102 43.25 111.098 43.25C111.094 43.25 111.09 43.25 111.085 43.25C111.081 43.25 111.077 43.25 111.073 43.25C111.069 43.25 111.065 43.25 111.061 43.25C111.057 43.25 111.053 43.25 111.049 43.25C111.045 43.25 111.042 43.25 111.038 43.25C111.034 43.25 111.03 43.25 111.026 43.25C111.022 43.25 111.018 43.25 111.014 43.25C111.011 43.25 111.007 43.25 111.003 43.25C110.999 43.25 110.995 43.25 110.992 43.25C110.988 43.25 110.984 43.25 110.98 43.25C110.977 43.25 110.973 43.25 110.969 43.25C110.966 43.25 110.962 43.25 110.958 43.25C110.955 43.25 110.951 43.25 110.947 43.25C110.944 43.25 110.94 43.25 110.937 43.25C110.933 43.25 110.93 43.25 110.926 43.25C110.922 43.25 110.919 43.25 110.915 43.25C110.912 43.25 110.909 43.25 110.905 43.25C110.902 43.25 110.898 43.25 110.895 43.25C110.891 43.25 110.888 43.25 110.885 43.25C110.881 43.25 110.878 43.25 110.875 43.25C110.871 43.25 110.868 43.25 110.865 43.25C110.861 43.25 110.858 43.25 110.855 43.25C110.852 43.25 110.848 43.25 110.845 43.25C110.842 43.25 110.839 43.25 110.836 43.25C110.833 43.25 110.829 43.25 110.826 43.25C110.823 43.25 110.82 43.25 110.817 43.25C110.814 43.25 110.811 43.25 110.808 43.25C110.805 43.25 110.802 43.25 110.799 43.25C110.796 43.25 110.793 43.25 110.79 43.25C110.787 43.25 110.784 43.25 110.781 43.25C110.778 43.25 110.775 43.25 110.772 43.25C110.769 43.25 110.767 43.25 110.764 43.25C110.761 43.25 110.758 43.25 110.755 43.25C110.753 43.25 110.75 43.25 110.747 43.25C110.744 43.25 110.742 43.25 110.739 43.25C110.736 43.25 110.734 43.25 110.731 43.25C110.728 43.25 110.726 43.25 110.723 43.25C110.72 43.25 110.718 43.25 110.715 43.25C110.713 43.25 110.71 43.25 110.708 43.25C110.705 43.25 110.703 43.25 110.7 43.25C110.698 43.25 110.695 43.25 110.693 43.25C110.69 43.25 110.688 43.25 110.686 43.25C110.683 43.25 110.681 43.25 110.678 43.25C110.676 43.25 110.674 43.25 110.671 43.25C110.669 43.25 110.667 43.25 110.665 43.25C110.662 43.25 110.66 43.25 110.658 43.25C110.656 43.25 110.654 43.25 110.651 43.25C110.649 43.25 110.647 43.25 110.645 43.25C110.643 43.25 110.641 43.25 110.639 43.25C110.637 43.25 110.635 43.25 110.632 43.25C110.63 43.25 110.628 43.25 110.626 43.25C110.624 43.25 110.623 43.25 110.621 43.25C110.619 43.25 110.617 43.25 110.615 43.25C110.613 43.25 110.611 43.25 110.609 43.25C110.607 43.25 110.606 43.25 110.604 43.25C110.602 43.25 110.6 43.25 110.598 43.25C110.597 43.25 110.595 43.25 110.593 43.25C110.592 43.25 110.59 43.25 110.588 43.25C110.587 43.25 110.585 43.25 110.583 43.25C110.582 43.25 110.58 43.25 110.579 43.25C110.577 43.25 110.575 43.25 110.574 43.25C110.572 43.25 110.571 43.25 110.569 43.25C110.568 43.25 110.567 43.25 110.565 43.25C110.564 43.25 110.562 43.25 110.561 43.25C110.56 43.25 110.558 43.25 110.557 43.25C110.556 43.25 110.554 43.25 110.553 43.25C110.552 43.25 110.551 43.25 110.549 43.25C110.548 43.25 110.547 43.25 110.546 43.25C110.545 43.25 110.543 43.25 110.542 43.25C110.541 43.25 110.54 43.25 110.539 43.25C110.538 43.25 110.537 43.25 110.536 43.25C110.535 43.25 110.534 43.25 110.533 43.25C110.532 43.25 110.531 43.25 110.53 43.25C110.529 43.25 110.528 43.25 110.527 43.25C110.526 43.25 110.525 43.25 110.525 43.25C110.524 43.25 110.523 43.25 110.522 43.25C110.521 43.25 110.521 43.25 110.52 43.25C110.519 43.25 110.519 43.25 110.518 43.25C110.517 43.25 110.517 43.25 110.516 43.25C110.515 43.25 110.515 43.25 110.514 43.25C110.514 43.25 110.513 43.25 110.513 43.25C110.512 43.25 110.511 43.25 110.511 43.25C110.511 43.25 110.51 43.25 110.51 43.25C110.509 43.25 110.509 43.25 110.509 43.25C110.508 43.25 110.508 43.25 110.507 43.25C110.507 43.25 110.507 43.25 110.507 43.25C110.506 43.25 110.506 43.25 110.506 43.25C110.506 43.25 110.506 43.25 110.505 43.25C110.505 43.25 110.505 43.25 110.505 43.25C110.505 43.25 110.505 43.25 110.505 43.25C110.505 43.25 110.505 43.25 110.505 44C110.505 44.75 110.505 44.75 110.505 44.75C110.505 44.75 110.505 44.75 110.505 44.75C110.505 44.75 110.505 44.75 110.505 44.75C110.506 44.75 110.506 44.75 110.506 44.75C110.506 44.75 110.506 44.75 110.507 44.75C110.507 44.75 110.507 44.75 110.507 44.75C110.508 44.75 110.508 44.75 110.509 44.75C110.509 44.75 110.509 44.75 110.51 44.75C110.51 44.75 110.511 44.75 110.511 44.75C110.511 44.75 110.512 44.75 110.513 44.75C110.513 44.75 110.514 44.75 110.514 44.75C110.515 44.75 110.515 44.75 110.516 44.75C110.517 44.75 110.517 44.75 110.518 44.75C110.519 44.75 110.519 44.75 110.52 44.75C110.521 44.75 110.521 44.75 110.522 44.75C110.523 44.75 110.524 44.75 110.525 44.75C110.525 44.75 110.526 44.75 110.527 44.75C110.528 44.75 110.529 44.75 110.53 44.75C110.531 44.75 110.532 44.75 110.533 44.75C110.534 44.75 110.535 44.75 110.536 44.75C110.537 44.75 110.538 44.75 110.539 44.75C110.54 44.75 110.541 44.75 110.542 44.75C110.543 44.75 110.545 44.75 110.546 44.75C110.547 44.75 110.548 44.75 110.549 44.75C110.551 44.75 110.552 44.75 110.553 44.75C110.554 44.75 110.556 44.75 110.557 44.75C110.558 44.75 110.56 44.75 110.561 44.75C110.562 44.75 110.564 44.75 110.565 44.75C110.567 44.75 110.568 44.75 110.569 44.75C110.571 44.75 110.572 44.75 110.574 44.75C110.575 44.75 110.577 44.75 110.579 44.75C110.58 44.75 110.582 44.75 110.583 44.75C110.585 44.75 110.587 44.75 110.588 44.75C110.59 44.75 110.592 44.75 110.593 44.75C110.595 44.75 110.597 44.75 110.598 44.75C110.6 44.75 110.602 44.75 110.604 44.75C110.606 44.75 110.607 44.75 110.609 44.75C110.611 44.75 110.613 44.75 110.615 44.75C110.617 44.75 110.619 44.75 110.621 44.75C110.623 44.75 110.624 44.75 110.626 44.75C110.628 44.75 110.63 44.75 110.632 44.75C110.635 44.75 110.637 44.75 110.639 44.75C110.641 44.75 110.643 44.75 110.645 44.75C110.647 44.75 110.649 44.75 110.651 44.75C110.654 44.75 110.656 44.75 110.658 44.75C110.66 44.75 110.662 44.75 110.665 44.75C110.667 44.75 110.669 44.75 110.671 44.75C110.674 44.75 110.676 44.75 110.678 44.75C110.681 44.75 110.683 44.75 110.686 44.75C110.688 44.75 110.69 44.75 110.693 44.75C110.695 44.75 110.698 44.75 110.7 44.75C110.703 44.75 110.705 44.75 110.708 44.75C110.71 44.75 110.713 44.75 110.715 44.75C110.718 44.75 110.72 44.75 110.723 44.75C110.726 44.75 110.728 44.75 110.731 44.75C110.734 44.75 110.736 44.75 110.739 44.75C110.742 44.75 110.744 44.75 110.747 44.75C110.75 44.75 110.753 44.75 110.755 44.75C110.758 44.75 110.761 44.75 110.764 44.75C110.767 44.75 110.769 44.75 110.772 44.75C110.775 44.75 110.778 44.75 110.781 44.75C110.784 44.75 110.787 44.75 110.79 44.75C110.793 44.75 110.796 44.75 110.799 44.75C110.802 44.75 110.805 44.75 110.808 44.75C110.811 44.75 110.814 44.75 110.817 44.75C110.82 44.75 110.823 44.75 110.826 44.75C110.829 44.75 110.833 44.75 110.836 44.75C110.839 44.75 110.842 44.75 110.845 44.75C110.848 44.75 110.852 44.75 110.855 44.75C110.858 44.75 110.861 44.75 110.865 44.75C110.868 44.75 110.871 44.75 110.875 44.75C110.878 44.75 110.881 44.75 110.885 44.75C110.888 44.75 110.891 44.75 110.895 44.75C110.898 44.75 110.902 44.75 110.905 44.75C110.909 44.75 110.912 44.75 110.915 44.75C110.919 44.75 110.922 44.75 110.926 44.75C110.93 44.75 110.933 44.75 110.937 44.75C110.94 44.75 110.944 44.75 110.947 44.75C110.951 44.75 110.955 44.75 110.958 44.75C110.962 44.75 110.966 44.75 110.969 44.75C110.973 44.75 110.977 44.75 110.98 44.75C110.984 44.75 110.988 44.75 110.992 44.75C110.995 44.75 110.999 44.75 111.003 44.75C111.007 44.75 111.011 44.75 111.014 44.75C111.018 44.75 111.022 44.75 111.026 44.75C111.03 44.75 111.034 44.75 111.038 44.75C111.042 44.75 111.045 44.75 111.049 44.75C111.053 44.75 111.057 44.75 111.061 44.75C111.065 44.75 111.069 44.75 111.073 44.75C111.077 44.75 111.081 44.75 111.085 44.75C111.09 44.75 111.094 44.75 111.098 44.75C111.102 44.75 111.106 44.75 111.11 44.75C111.114 44.75 111.118 44.75 111.123 44.75C111.127 44.75 111.131 44.75 111.135 44.75C111.139 44.75 111.144 44.75 111.148 44.75C111.152 44.75 111.156 44.75 111.161 44.75C111.165 44.75 111.169 44.75 111.174 44.75C111.178 44.75 111.182 44.75 111.187 44.75C111.191 44.75 111.195 44.75 111.2 44.75C111.204 44.75 111.208 44.75 111.213 44.75C111.217 44.75 111.222 44.75 111.226 44.75C111.231 44.75 111.235 44.75 111.24 44.75C111.244 44.75 111.249 44.75 111.253 44.75C111.258 44.75 111.262 44.75 111.267 44.75C111.271 44.75 111.276 44.75 111.281 44.75C111.285 44.75 111.29 44.75 111.294 44.75C111.299 44.75 111.304 44.75 111.308 44.75C111.313 44.75 111.318 44.75 111.322 44.75C111.327 44.75 111.332 44.75 111.337 44.75C111.341 44.75 111.346 44.75 111.351 44.75C111.356 44.75 111.36 44.75 111.365 44.75C111.37 44.75 111.375 44.75 111.38 44.75C111.385 44.75 111.389 44.75 111.394 44.75C111.399 44.75 111.404 44.75 111.409 44.75C111.414 44.75 111.419 44.75 111.424 44.75C111.429 44.75 111.434 44.75 111.439 44.75C111.444 44.75 111.449 44.75 111.454 44.75C111.459 44.75 111.464 44.75 111.469 44.75C111.474 44.75 111.479 44.75 111.484 44.75C111.489 44.75 111.494 44.75 111.499 44.75C111.504 44.75 111.509 44.75 111.514 44.75C111.519 44.75 111.525 44.75 111.53 44.75C111.535 44.75 111.54 44.75 111.545 44.75C111.551 44.75 111.556 44.75 111.561 44.75C111.566 44.75 111.571 44.75 111.577 44.75C111.582 44.75 111.587 44.75 111.592 44.75C111.598 44.75 111.603 44.75 111.608 44.75C111.614 44.75 111.619 44.75 111.624 44.75C111.63 44.75 111.635 44.75 111.64 44.75C111.646 44.75 111.651 44.75 111.657 44.75C111.662 44.75 111.668 44.75 111.673 44.75C111.678 44.75 111.684 44.75 111.689 44.75C111.695 44.75 111.7 44.75 111.706 44.75C111.711 44.75 111.717 44.75 111.722 44.75C111.728 44.75 111.733 44.75 111.739 44.75C111.744 44.75 111.75 44.75 111.756 44.75C111.761 44.75 111.767 44.75 111.772 44.75C111.778 44.75 111.784 44.75 111.789 44.75C111.795 44.75 111.801 44.75 111.806 44.75C111.812 44.75 111.818 44.75 111.823 44.75C111.829 44.75 111.835 44.75 111.841 44.75C111.846 44.75 111.852 44.75 111.858 44.75C111.863 44.75 111.869 44.75 111.875 44.75C111.881 44.75 111.887 44.75 111.892 44.75C111.898 44.75 111.904 44.75 111.91 44.75C111.916 44.75 111.922 44.75 111.927 44.75C111.933 44.75 111.939 44.75 111.945 44.75C111.951 44.75 111.957 44.75 111.963 44.75C111.969 44.75 111.975 44.75 111.981 44.75C111.987 44.75 111.993 44.75 111.999 44.75C112.005 44.75 112.011 44.75 112.017 44.75C112.023 44.75 112.029 44.75 112.035 44.75C112.041 44.75 112.047 44.75 112.053 44.75C112.059 44.75 112.065 44.75 112.071 44.75C112.077 44.75 112.083 44.75 112.089 44.75C112.095 44.75 112.101 44.75 112.108 44.75C112.114 44.75 112.12 44.75 112.126 44.75C112.132 44.75 112.138 44.75 112.144 44.75C112.151 44.75 112.157 44.75 112.163 44.75C112.169 44.75 112.175 44.75 112.182 44.75C112.188 44.75 112.194 44.75 112.2 44.75C112.207 44.75 112.213 44.75 112.219 44.75C112.226 44.75 112.232 44.75 112.238 44.75C112.244 44.75 112.251 44.75 112.257 44.75C112.263 44.75 112.27 44.75 112.276 44.75C112.282 44.75 112.289 44.75 112.295 44.75C112.302 44.75 112.308 44.75 112.314 44.75C112.321 44.75 112.327 44.75 112.334 44.75C112.34 44.75 112.346 44.75 112.353 44.75C112.359 44.75 112.366 44.75 112.372 44.75C112.379 44.75 112.385 44.75 112.392 44.75C112.398 44.75 112.405 44.75 112.411 44.75C112.418 44.75 112.424 44.75 112.431 44.75C112.437 44.75 112.444 44.75 112.45 44.75C112.457 44.75 112.464 44.75 112.47 44.75C112.477 44.75 112.483 44.75 112.49 44.75C112.497 44.75 112.503 44.75 112.51 44.75C112.516 44.75 112.523 44.75 112.53 44.75C112.536 44.75 112.543 44.75 112.55 44.75C112.556 44.75 112.563 44.75 112.57 44.75C112.576 44.75 112.583 44.75 112.59 44.75C112.597 44.75 112.603 44.75 112.61 44.75C112.617 44.75 112.624 44.75 112.63 44.75C112.637 44.75 112.644 44.75 112.651 44.75C112.657 44.75 112.664 44.75 112.671 44.75C112.678 44.75 112.685 44.75 112.691 44.75C112.698 44.75 112.705 44.75 112.712 44.75C112.719 44.75 112.726 44.75 112.732 44.75C112.739 44.75 112.746 44.75 112.753 44.75C112.76 44.75 112.767 44.75 112.774 44.75C112.781 44.75 112.787 44.75 112.794 44.75C112.801 44.75 112.808 44.75 112.815 44.75C112.822 44.75 112.829 44.75 112.836 44.75C112.843 44.75 112.85 44.75 112.857 44.75C112.864 44.75 112.871 44.75 112.878 44.75C112.885 44.75 112.892 44.75 112.899 44.75C112.906 44.75 112.913 44.75 112.92 44.75C112.927 44.75 112.934 44.75 112.941 44.75C112.948 44.75 112.955 44.75 112.962 44.75C112.969 44.75 112.976 44.75 112.983 44.75C112.99 44.75 112.997 44.75 113.005 44.75C113.012 44.75 113.019 44.75 113.026 44.75C113.033 44.75 113.04 44.75 113.047 44.75C113.054 44.75 113.062 44.75 113.069 44.75C113.076 44.75 113.083 44.75 113.09 44.75C113.097 44.75 113.105 44.75 113.112 44.75C113.119 44.75 113.126 44.75 113.133 44.75C113.14 44.75 113.148 44.75 113.155 44.75C113.162 44.75 113.169 44.75 113.177 44.75C113.184 44.75 113.191 44.75 113.198 44.75C113.206 44.75 113.213 44.75 113.22 44.75C113.227 44.75 113.235 44.75 113.242 44.75C113.249 44.75 113.256 44.75 113.264 44.75C113.271 44.75 113.278 44.75 113.286 44.75C113.293 44.75 113.3 44.75 113.308 44.75C113.315 44.75 113.322 44.75 113.33 44.75C113.337 44.75 113.344 44.75 113.352 44.75C113.359 44.75 113.366 44.75 113.374 44.75C113.381 44.75 113.389 44.75 113.396 44.75C113.403 44.75 113.411 44.75 113.418 44.75C113.425 44.75 113.433 44.75 113.44 44.75C113.448 44.75 113.455 44.75 113.463 44.75C113.47 44.75 113.477 44.75 113.485 44.75C113.492 44.75 113.5 44.75 113.507 44.75C113.515 44.75 113.522 44.75 113.53 44.75C113.537 44.75 113.545 44.75 113.552 44.75C113.56 44.75 113.567 44.75 113.574 44.75C113.582 44.75 113.589 44.75 113.597 44.75C113.605 44.75 113.612 44.75 113.62 44.75C113.627 44.75 113.635 44.75 113.642 44.75C113.65 44.75 113.657 44.75 113.665 44.75C113.672 44.75 113.68 44.75 113.687 44.75C113.695 44.75 113.703 44.75 113.71 44.75C113.718 44.75 113.725 44.75 113.733 44.75C113.74 44.75 113.748 44.75 113.756 44.75C113.763 44.75 113.771 44.75 113.778 44.75C113.786 44.75 113.794 44.75 113.801 44.75C113.809 44.75 113.816 44.75 113.824 44.75C113.832 44.75 113.839 44.75 113.847 44.75C113.855 44.75 113.862 44.75 113.87 44.75C113.877 44.75 113.885 44.75 113.893 44.75C113.9 44.75 113.908 44.75 113.916 44.75C113.923 44.75 113.931 44.75 113.939 44.75C113.946 44.75 113.954 44.75 113.962 44.75C113.97 44.75 113.977 44.75 113.985 44.75C113.993 44.75 114 44.75 114.008 44.75C114.016 44.75 114.023 44.75 114.031 44.75C114.039 44.75 114.047 44.75 114.054 44.75C114.062 44.75 114.07 44.75 114.078 44.75C114.085 44.75 114.093 44.75 114.101 44.75C114.109 44.75 114.116 44.75 114.124 44.75C114.132 44.75 114.14 44.75 114.147 44.75C114.155 44.75 114.163 44.75 114.171 44.75C114.178 44.75 114.186 44.75 114.194 44.75C114.202 44.75 114.209 44.75 114.217 44.75C114.225 44.75 114.233 44.75 114.241 44.75C114.248 44.75 114.256 44.75 114.264 44.75C114.272 44.75 114.28 44.75 114.287 44.75C114.295 44.75 114.303 44.75 114.311 44.75C114.319 44.75 114.326 44.75 114.334 44.75C114.342 44.75 114.35 44.75 114.358 44.75C114.366 44.75 114.373 44.75 114.381 44.75C114.389 44.75 114.397 44.75 114.405 44.75C114.413 44.75 114.421 44.75 114.428 44.75C114.436 44.75 114.444 44.75 114.452 44.75C114.46 44.75 114.468 44.75 114.476 44.75C114.483 44.75 114.491 44.75 114.499 44.75C114.507 44.75 114.515 44.75 114.523 44.75C114.531 44.75 114.538 44.75 114.546 44.75C114.554 44.75 114.562 44.75 114.57 44.75C114.578 44.75 114.586 44.75 114.594 44.75C114.602 44.75 114.609 44.75 114.617 44.75C114.625 44.75 114.633 44.75 114.641 44.75C114.649 44.75 114.657 44.75 114.665 44.75C114.673 44.75 114.681 44.75 114.688 44.75C114.696 44.75 114.704 44.75 114.712 44.75C114.72 44.75 114.728 44.75 114.736 44.75C114.744 44.75 114.752 44.75 114.76 44.75C114.768 44.75 114.776 44.75 114.783 44.75C114.791 44.75 114.799 44.75 114.807 44.75C114.815 44.75 114.823 44.75 114.831 44.75C114.839 44.75 114.847 44.75 114.855 44.75C114.863 44.75 114.871 44.75 114.879 44.75C114.887 44.75 114.895 44.75 114.903 44.75C114.91 44.75 114.918 44.75 114.926 44.75C114.934 44.75 114.942 44.75 114.95 44.75C114.958 44.75 114.966 44.75 114.974 44.75C114.982 44.75 114.99 44.75 114.998 44.75C115.006 44.75 115.014 44.75 115.022 44.75C115.03 44.75 115.038 44.75 115.046 44.75C115.054 44.75 115.062 44.75 115.069 44.75C115.077 44.75 115.085 44.75 115.093 44.75C115.101 44.75 115.109 44.75 115.117 44.75C115.125 44.75 115.133 44.75 115.141 44.75C115.149 44.75 115.157 44.75 115.165 44.75C115.173 44.75 115.181 44.75 115.189 44.75C115.197 44.75 115.205 44.75 115.213 44.75C115.221 44.75 115.229 44.75 115.237 44.75C115.245 44.75 115.253 44.75 115.261 44.75C115.269 44.75 115.276 44.75 115.284 44.75C115.292 44.75 115.3 44.75 115.308 44.75C115.316 44.75 115.324 44.75 115.332 44.75C115.34 44.75 115.348 44.75 115.356 44.75C115.364 44.75 115.372 44.75 115.38 44.75C115.388 44.75 115.396 44.75 115.404 44.75C115.412 44.75 115.42 44.75 115.428 44.75C115.436 44.75 115.444 44.75 115.452 44.75C115.46 44.75 115.468 44.75 115.476 44.75C115.483 44.75 115.491 44.75 115.499 44.75C115.507 44.75 115.515 44.75 115.523 44.75C115.531 44.75 115.539 44.75 115.547 44.75C115.555 44.75 115.563 44.75 115.571 44.75C115.579 44.75 115.587 44.75 115.595 44.75C115.603 44.75 115.611 44.75 115.619 44.75C115.627 44.75 115.635 44.75 115.643 44.75C115.65 44.75 115.658 44.75 115.666 44.75C115.674 44.75 115.682 44.75 115.69 44.75C115.698 44.75 115.706 44.75 115.714 44.75C115.722 44.75 115.73 44.75 115.738 44.75C115.746 44.75 115.754 44.75 115.762 44.75C115.769 44.75 115.777 44.75 115.785 44.75C115.793 44.75 115.801 44.75 115.809 44.75C115.817 44.75 115.825 44.75 115.833 44.75C115.841 44.75 115.849 44.75 115.857 44.75C115.865 44.75 115.872 44.75 115.88 44.75C115.888 44.75 115.896 44.75 115.904 44.75C115.912 44.75 115.92 44.75 115.928 44.75C115.936 44.75 115.944 44.75 115.951 44.75C115.959 44.75 115.967 44.75 115.975 44.75C115.983 44.75 115.991 44.75 115.999 44.75C116.007 44.75 116.015 44.75 116.022 44.75C116.03 44.75 116.038 44.75 116.046 44.75C116.054 44.75 116.062 44.75 116.07 44.75C116.078 44.75 116.085 44.75 116.093 44.75C116.101 44.75 116.109 44.75 116.117 44.75C116.125 44.75 116.133 44.75 116.14 44.75C116.148 44.75 116.156 44.75 116.164 44.75C116.172 44.75 116.18 44.75 116.187 44.75C116.195 44.75 116.203 44.75 116.211 44.75C116.219 44.75 116.227 44.75 116.234 44.75C116.242 44.75 116.25 44.75 116.258 44.75C116.266 44.75 116.274 44.75 116.281 44.75C116.289 44.75 116.297 44.75 116.305 44.75C116.313 44.75 116.32 44.75 116.328 44.75C116.336 44.75 116.344 44.75 116.351 44.75C116.359 44.75 116.367 44.75 116.375 44.75C116.383 44.75 116.39 44.75 116.398 44.75C116.406 44.75 116.414 44.75 116.421 44.75C116.429 44.75 116.437 44.75 116.445 44.75C116.452 44.75 116.46 44.75 116.468 44.75C116.476 44.75 116.483 44.75 116.491 44.75C116.499 44.75 116.507 44.75 116.514 44.75C116.522 44.75 116.53 44.75 116.537 44.75C116.545 44.75 116.553 44.75 116.561 44.75C116.568 44.75 116.576 44.75 116.584 44.75C116.591 44.75 116.599 44.75 116.607 44.75C116.614 44.75 116.622 44.75 116.63 44.75C116.637 44.75 116.645 44.75 116.653 44.75C116.66 44.75 116.668 44.75 116.676 44.75C116.683 44.75 116.691 44.75 116.699 44.75C116.706 44.75 116.714 44.75 116.722 44.75C116.729 44.75 116.737 44.75 116.745 44.75C116.752 44.75 116.76 44.75 116.767 44.75C116.775 44.75 116.783 44.75 116.79 44.75C116.798 44.75 116.805 44.75 116.813 44.75C116.821 44.75 116.828 44.75 116.836 44.75C116.843 44.75 116.851 44.75 116.858 44.75C116.866 44.75 116.874 44.75 116.881 44.75C116.889 44.75 116.896 44.75 116.904 44.75C116.911 44.75 116.919 44.75 116.926 44.75C116.934 44.75 116.941 44.75 116.949 44.75C116.956 44.75 116.964 44.75 116.971 44.75C116.979 44.75 116.986 44.75 116.994 44.75C117.001 44.75 117.009 44.75 117.016 44.75C117.024 44.75 117.031 44.75 117.039 44.75C117.046 44.75 117.054 44.75 117.061 44.75C117.069 44.75 117.076 44.75 117.084 44.75C117.091 44.75 117.098 44.75 117.106 44.75C117.113 44.75 117.121 44.75 117.128 44.75C117.135 44.75 117.143 44.75 117.15 44.75C117.158 44.75 117.165 44.75 117.172 44.75C117.18 44.75 117.187 44.75 117.195 44.75C117.202 44.75 117.209 44.75 117.217 44.75C117.224 44.75 117.231 44.75 117.239 44.75C117.246 44.75 117.253 44.75 117.261 44.75C117.268 44.75 117.275 44.75 117.283 44.75C117.29 44.75 117.297 44.75 117.304 44.75C117.312 44.75 117.319 44.75 117.326 44.75C117.334 44.75 117.341 44.75 117.348 44.75C117.355 44.75 117.363 44.75 117.37 44.75C117.377 44.75 117.384 44.75 117.392 44.75C117.399 44.75 117.406 44.75 117.413 44.75C117.42 44.75 117.428 44.75 117.435 44.75C117.442 44.75 117.449 44.75 117.456 44.75C117.464 44.75 117.471 44.75 117.478 44.75C117.485 44.75 117.492 44.75 117.499 44.75C117.507 44.75 117.514 44.75 117.521 44.75C117.528 44.75 117.535 44.75 117.542 44.75C117.549 44.75 117.556 44.75 117.563 44.75C117.571 44.75 117.578 44.75 117.585 44.75C117.592 44.75 117.599 44.75 117.606 44.75C117.613 44.75 117.62 44.75 117.627 44.75C117.634 44.75 117.641 44.75 117.648 44.75C117.655 44.75 117.662 44.75 117.669 44.75C117.676 44.75 117.683 44.75 117.69 44.75C117.697 44.75 117.704 44.75 117.711 44.75C117.718 44.75 117.725 44.75 117.732 44.75C117.739 44.75 117.746 44.75 117.753 44.75C117.76 44.75 117.767 44.75 117.774 44.75C117.78 44.75 117.787 44.75 117.794 44.75C117.801 44.75 117.808 44.75 117.815 44.75C117.822 44.75 117.829 44.75 117.835 44.75C117.842 44.75 117.849 44.75 117.856 44.75C117.863 44.75 117.87 44.75 117.876 44.75C117.883 44.75 117.89 44.75 117.897 44.75C117.904 44.75 117.91 44.75 117.917 44.75C117.924 44.75 117.931 44.75 117.937 44.75C117.944 44.75 117.951 44.75 117.958 44.75C117.964 44.75 117.971 44.75 117.978 44.75C117.985 44.75 117.991 44.75 117.998 44.75C118.005 44.75 118.011 44.75 118.018 44.75C118.025 44.75 118.031 44.75 118.038 44.75C118.045 44.75 118.051 44.75 118.058 44.75C118.064 44.75 118.071 44.75 118.078 44.75C118.084 44.75 118.091 44.75 118.097 44.75C118.104 44.75 118.111 44.75 118.117 44.75C118.124 44.75 118.13 44.75 118.137 44.75C118.143 44.75 118.15 44.75 118.156 44.75C118.163 44.75 118.169 44.75 118.176 44.75C118.182 44.75 118.189 44.75 118.195 44.75C118.202 44.75 118.208 44.75 118.215 44.75C118.221 44.75 118.227 44.75 118.234 44.75C118.24 44.75 118.247 44.75 118.253 44.75C118.259 44.75 118.266 44.75 118.272 44.75C118.279 44.75 118.285 44.75 118.291 44.75C118.298 44.75 118.304 44.75 118.31 44.75C118.317 44.75 118.323 44.75 118.329 44.75C118.336 44.75 118.342 44.75 118.348 44.75C118.354 44.75 118.361 44.75 118.367 44.75C118.373 44.75 118.379 44.75 118.386 44.75C118.392 44.75 118.398 44.75 118.404 44.75C118.41 44.75 118.417 44.75 118.423 44.75C118.429 44.75 118.435 44.75 118.441 44.75C118.447 44.75 118.454 44.75 118.46 44.75C118.466 44.75 118.472 44.75 118.478 44.75C118.484 44.75 118.49 44.75 118.496 44.75C118.502 44.75 118.508 44.75 118.514 44.75C118.52 44.75 118.527 44.75 118.533 44.75C118.539 44.75 118.545 44.75 118.551 44.75C118.557 44.75 118.563 44.75 118.569 44.75C118.574 44.75 118.58 44.75 118.586 44.75C118.592 44.75 118.598 44.75 118.604 44.75C118.61 44.75 118.616 44.75 118.622 44.75C118.628 44.75 118.634 44.75 118.639 44.75C118.645 44.75 118.651 44.75 118.657 44.75C118.663 44.75 118.669 44.75 118.674 44.75C118.68 44.75 118.686 44.75 118.692 44.75C118.698 44.75 118.703 44.75 118.709 44.75C118.715 44.75 118.721 44.75 118.726 44.75C118.732 44.75 118.738 44.75 118.743 44.75C118.749 44.75 118.755 44.75 118.76 44.75C118.766 44.75 118.772 44.75 118.777 44.75C118.783 44.75 118.789 44.75 118.794 44.75C118.8 44.75 118.805 44.75 118.811 44.75C118.817 44.75 118.822 44.75 118.828 44.75C118.833 44.75 118.839 44.75 118.844 44.75C118.85 44.75 118.855 44.75 118.861 44.75C118.866 44.75 118.872 44.75 118.877 44.75C118.883 44.75 118.888 44.75 118.894 44.75C118.899 44.75 118.904 44.75 118.91 44.75C118.915 44.75 118.921 44.75 118.926 44.75C118.931 44.75 118.937 44.75 118.942 44.75C118.947 44.75 118.953 44.75 118.958 44.75C118.963 44.75 118.969 44.75 118.974 44.75C118.979 44.75 118.984 44.75 118.99 44.75C118.995 44.75 119 44.75 119.005 44.75C119.011 44.75 119.016 44.75 119.021 44.75C119.026 44.75 119.031 44.75 119.037 44.75C119.042 44.75 119.047 44.75 119.052 44.75C119.057 44.75 119.062 44.75 119.067 44.75C119.072 44.75 119.077 44.75 119.082 44.75C119.088 44.75 119.093 44.75 119.098 44.75C119.103 44.75 119.108 44.75 119.113 44.75C119.118 44.75 119.123 44.75 119.128 44.75C119.133 44.75 119.137 44.75 119.142 44.75C119.147 44.75 119.152 44.75 119.157 44.75C119.162 44.75 119.167 44.75 119.172 44.75C119.177 44.75 119.181 44.75 119.186 44.75C119.191 44.75 119.196 44.75 119.201 44.75C119.206 44.75 119.21 44.75 119.215 44.75C119.22 44.75 119.225 44.75 119.229 44.75C119.234 44.75 119.239 44.75 119.243 44.75C119.248 44.75 119.253 44.75 119.257 44.75C119.262 44.75 119.267 44.75 119.271 44.75C119.276 44.75 119.281 44.75 119.285 44.75C119.29 44.75 119.294 44.75 119.299 44.75C119.303 44.75 119.308 44.75 119.313 44.75C119.317 44.75 119.322 44.75 119.326 44.75C119.331 44.75 119.335 44.75 119.339 44.75C119.344 44.75 119.348 44.75 119.353 44.75C119.357 44.75 119.362 44.75 119.366 44.75C119.37 44.75 119.375 44.75 119.379 44.75C119.383 44.75 119.388 44.75 119.392 44.75C119.396 44.75 119.401 44.75 119.405 44.75C119.409 44.75 119.413 44.75 119.418 44.75C119.422 44.75 119.426 44.75 119.43 44.75C119.434 44.75 119.439 44.75 119.443 44.75C119.447 44.75 119.451 44.75 119.455 44.75C119.459 44.75 119.464 44.75 119.468 44.75C119.472 44.75 119.476 44.75 119.48 44.75C119.484 44.75 119.488 44.75 119.492 44.75C119.496 44.75 119.5 44.75 119.504 44.75V43.25ZM110.505 44C111.197 44.2883 111.197 44.2882 111.197 44.2881C111.197 44.2881 111.197 44.2879 111.197 44.2878C111.197 44.2876 111.197 44.2873 111.198 44.2869C111.198 44.2863 111.198 44.2853 111.199 44.2842C111.2 44.2819 111.201 44.2787 111.203 44.2747C111.206 44.2665 111.211 44.2549 111.217 44.24C111.229 44.2102 111.246 44.1671 111.268 44.1123C111.311 44.0027 111.372 43.846 111.442 43.6545C111.583 43.2725 111.765 42.7467 111.927 42.1769C112.089 41.6112 112.237 40.9805 112.302 40.3941C112.363 39.843 112.37 39.1862 112.111 38.6669L110.768 39.3346C110.822 39.443 110.867 39.725 110.812 40.229C110.76 40.6976 110.635 41.2382 110.485 41.7654C110.336 42.2884 110.167 42.7771 110.035 43.1363C109.969 43.3154 109.912 43.461 109.873 43.5611C109.853 43.6111 109.838 43.6497 109.827 43.6753C109.822 43.6881 109.818 43.6977 109.816 43.7038C109.814 43.7068 109.813 43.7091 109.813 43.7104C109.813 43.711 109.812 43.7115 109.812 43.7117C109.812 43.7118 109.812 43.7118 109.812 43.7118C109.812 43.7118 109.812 43.7118 109.812 43.7118C109.812 43.7117 109.812 43.7117 110.505 44Z" fill="white"/>
<path d="M100.598 50.4688V59H99.4844V50.4688H100.598ZM103.34 50.4688V51.3945H96.748V50.4688H103.34ZM105.619 52.6602V59H104.529V52.6602H105.619ZM104.447 50.9785C104.447 50.8027 104.5 50.6543 104.605 50.5332C104.715 50.4121 104.875 50.3516 105.086 50.3516C105.293 50.3516 105.451 50.4121 105.561 50.5332C105.674 50.6543 105.73 50.8027 105.73 50.9785C105.73 51.1465 105.674 51.291 105.561 51.4121C105.451 51.5293 105.293 51.5879 105.086 51.5879C104.875 51.5879 104.715 51.5293 104.605 51.4121C104.5 51.291 104.447 51.1465 104.447 50.9785ZM108.443 54.0137V59H107.359V52.6602H108.385L108.443 54.0137ZM108.186 55.5898L107.734 55.5723C107.738 55.1387 107.803 54.7383 107.928 54.3711C108.053 54 108.229 53.6777 108.455 53.4043C108.682 53.1309 108.951 52.9199 109.264 52.7715C109.58 52.6191 109.93 52.543 110.312 52.543C110.625 52.543 110.906 52.5859 111.156 52.6719C111.406 52.7539 111.619 52.8867 111.795 53.0703C111.975 53.2539 112.111 53.4922 112.205 53.7852C112.299 54.0742 112.346 54.4277 112.346 54.8457V59H111.256V54.834C111.256 54.502 111.207 54.2363 111.109 54.0371C111.012 53.834 110.869 53.6875 110.682 53.5977C110.494 53.5039 110.264 53.457 109.99 53.457C109.721 53.457 109.475 53.5137 109.252 53.627C109.033 53.7402 108.844 53.8965 108.684 54.0957C108.527 54.2949 108.404 54.5234 108.314 54.7812C108.229 55.0352 108.186 55.3047 108.186 55.5898ZM118.053 54.0137V59H116.969V52.6602H117.994L118.053 54.0137ZM117.795 55.5898L117.344 55.5723C117.348 55.1387 117.412 54.7383 117.537 54.3711C117.662 54 117.838 53.6777 118.064 53.4043C118.291 53.1309 118.561 52.9199 118.873 52.7715C119.189 52.6191 119.539 52.543 119.922 52.543C120.234 52.543 120.516 52.5859 120.766 52.6719C121.016 52.7539 121.229 52.8867 121.404 53.0703C121.584 53.2539 121.721 53.4922 121.814 53.7852C121.908 54.0742 121.955 54.4277 121.955 54.8457V59H120.865V54.834C120.865 54.502 120.816 54.2363 120.719 54.0371C120.621 53.834 120.479 53.6875 120.291 53.5977C120.104 53.5039 119.873 53.457 119.6 53.457C119.33 53.457 119.084 53.5137 118.861 53.627C118.643 53.7402 118.453 53.8965 118.293 54.0957C118.137 54.2949 118.014 54.5234 117.924 54.7812C117.838 55.0352 117.795 55.3047 117.795 55.5898ZM124.686 50V59H123.602V50H124.686ZM124.428 55.5898L123.977 55.5723C123.98 55.1387 124.045 54.7383 124.17 54.3711C124.295 54 124.471 53.6777 124.697 53.4043C124.924 53.1309 125.193 52.9199 125.506 52.7715C125.822 52.6191 126.172 52.543 126.555 52.543C126.867 52.543 127.148 52.5859 127.398 52.6719C127.648 52.7539 127.861 52.8867 128.037 53.0703C128.217 53.2539 128.354 53.4922 128.447 53.7852C128.541 54.0742 128.588 54.4277 128.588 54.8457V59H127.498V54.834C127.498 54.502 127.449 54.2363 127.352 54.0371C127.254 53.834 127.111 53.6875 126.924 53.5977C126.736 53.5039 126.506 53.457 126.232 53.457C125.963 53.457 125.717 53.5137 125.494 53.627C125.275 53.7402 125.086 53.8965 124.926 54.0957C124.77 54.2949 124.646 54.5234 124.557 54.7812C124.471 55.0352 124.428 55.3047 124.428 55.5898ZM133.949 57.916V54.6523C133.949 54.4023 133.898 54.1855 133.797 54.002C133.699 53.8145 133.551 53.6699 133.352 53.5684C133.152 53.4668 132.906 53.416 132.613 53.416C132.34 53.416 132.1 53.4629 131.893 53.5566C131.689 53.6504 131.529 53.7734 131.412 53.9258C131.299 54.0781 131.242 54.2422 131.242 54.418H130.158C130.158 54.1914 130.217 53.9668 130.334 53.7441C130.451 53.5215 130.619 53.3203 130.838 53.1406C131.061 52.957 131.326 52.8125 131.635 52.707C131.947 52.5977 132.295 52.543 132.678 52.543C133.139 52.543 133.545 52.6211 133.896 52.7773C134.252 52.9336 134.529 53.1699 134.729 53.4863C134.932 53.7988 135.033 54.1914 135.033 54.6641V57.6172C135.033 57.8281 135.051 58.0527 135.086 58.291C135.125 58.5293 135.182 58.7344 135.256 58.9062V59H134.125C134.07 58.875 134.027 58.709 133.996 58.502C133.965 58.291 133.949 58.0957 133.949 57.916ZM134.137 55.1562L134.148 55.918H133.053C132.744 55.918 132.469 55.9434 132.227 55.9941C131.984 56.041 131.781 56.1133 131.617 56.2109C131.453 56.3086 131.328 56.4316 131.242 56.5801C131.156 56.7246 131.113 56.8945 131.113 57.0898C131.113 57.2891 131.158 57.4707 131.248 57.6348C131.338 57.7988 131.473 57.9297 131.652 58.0273C131.836 58.1211 132.061 58.168 132.326 58.168C132.658 58.168 132.951 58.0977 133.205 57.957C133.459 57.8164 133.66 57.6445 133.809 57.4414C133.961 57.2383 134.043 57.041 134.055 56.8496L134.518 57.3711C134.49 57.5352 134.416 57.7168 134.295 57.916C134.174 58.1152 134.012 58.3066 133.809 58.4902C133.609 58.6699 133.371 58.8203 133.094 58.9414C132.82 59.0586 132.512 59.1172 132.168 59.1172C131.738 59.1172 131.361 59.0332 131.037 58.8652C130.717 58.6973 130.467 58.4727 130.287 58.1914C130.111 57.9062 130.023 57.5879 130.023 57.2363C130.023 56.8965 130.09 56.5977 130.223 56.3398C130.355 56.0781 130.547 55.8613 130.797 55.6895C131.047 55.5137 131.348 55.3809 131.699 55.291C132.051 55.2012 132.443 55.1562 132.877 55.1562H134.137ZM133.645 50.5273H134.541C134.541 50.7656 134.469 50.9766 134.324 51.1602C134.184 51.3438 133.98 51.4883 133.715 51.5938C133.449 51.6992 133.135 51.752 132.771 51.752C132.404 51.752 132.088 51.6992 131.822 51.5938C131.557 51.4883 131.352 51.3438 131.207 51.1602C131.062 50.9766 130.99 50.7656 130.99 50.5273H131.881C131.881 50.707 131.947 50.8652 132.08 51.002C132.213 51.1348 132.443 51.2012 132.771 51.2012C133.084 51.2012 133.307 51.1348 133.439 51.002C133.576 50.8652 133.645 50.707 133.645 50.5273ZM132.426 50.4102L133.088 49.2441H133.984L133.023 50.4102H132.426ZM137.822 54.0137V59H136.738V52.6602H137.764L137.822 54.0137ZM137.564 55.5898L137.113 55.5723C137.117 55.1387 137.182 54.7383 137.307 54.3711C137.432 54 137.607 53.6777 137.834 53.4043C138.061 53.1309 138.33 52.9199 138.643 52.7715C138.959 52.6191 139.309 52.543 139.691 52.543C140.004 52.543 140.285 52.5859 140.535 52.6719C140.785 52.7539 140.998 52.8867 141.174 53.0703C141.354 53.2539 141.49 53.4922 141.584 53.7852C141.678 54.0742 141.725 54.4277 141.725 54.8457V59H140.635V54.834C140.635 54.502 140.586 54.2363 140.488 54.0371C140.391 53.834 140.248 53.6875 140.061 53.5977C139.873 53.5039 139.643 53.457 139.369 53.457C139.1 53.457 138.854 53.5137 138.631 53.627C138.412 53.7402 138.223 53.8965 138.062 54.0957C137.906 54.2949 137.783 54.5234 137.693 54.7812C137.607 55.0352 137.564 55.3047 137.564 55.5898Z" fill="white"/>
<path d="M268.5 43V41C268.5 38.2386 266.261 36 263.5 36C260.739 36 258.5 38.2386 258.5 41V43H268.5ZM268.5 43H276.5V42C276.5 39.0545 274.261 37 271.5 37C270.087 37 268.81 37.6255 267.901 38.6311M266.5 30C266.5 31.6569 265.157 33 263.5 33C261.843 33 260.5 31.6569 260.5 30C260.5 28.3431 261.843 27 263.5 27C265.157 27 266.5 28.3431 266.5 30ZM273.5 32C273.5 33.1046 272.605 34 271.5 34C270.395 34 269.5 33.1046 269.5 32C269.5 30.8954 270.395 30 271.5 30C272.605 30 273.5 30.8954 273.5 32Z" stroke="white" stroke-width="1.5" stroke-linecap="round" stroke-linejoin="round"/>
<path d="M253.174 55.0098H251.012L251 54.1016H252.963C253.287 54.1016 253.57 54.0469 253.812 53.9375C254.055 53.8281 254.242 53.6719 254.375 53.4688C254.512 53.2617 254.58 53.0156 254.58 52.7305C254.58 52.418 254.52 52.1641 254.398 51.9688C254.281 51.7695 254.1 51.625 253.854 51.5352C253.611 51.4414 253.303 51.3945 252.928 51.3945H251.264V59H250.133V50.4688H252.928C253.365 50.4688 253.756 50.5137 254.1 50.6035C254.443 50.6895 254.734 50.8262 254.973 51.0137C255.215 51.1973 255.398 51.4316 255.523 51.7168C255.648 52.002 255.711 52.3438 255.711 52.7422C255.711 53.0938 255.621 53.4121 255.441 53.6973C255.262 53.9785 255.012 54.209 254.691 54.3887C254.375 54.5684 254.004 54.6836 253.578 54.7344L253.174 55.0098ZM253.121 59H250.566L251.205 58.0801H253.121C253.48 58.0801 253.785 58.0176 254.035 57.8926C254.289 57.7676 254.482 57.5918 254.615 57.3652C254.748 57.1348 254.814 56.8633 254.814 56.5508C254.814 56.2344 254.758 55.9609 254.645 55.7305C254.531 55.5 254.354 55.3223 254.111 55.1973C253.869 55.0723 253.557 55.0098 253.174 55.0098H251.562L251.574 54.1016H253.777L254.018 54.4297C254.428 54.4648 254.775 54.582 255.061 54.7812C255.346 54.9766 255.562 55.2266 255.711 55.5312C255.863 55.8359 255.939 56.1719 255.939 56.5391C255.939 57.0703 255.822 57.5195 255.588 57.8867C255.357 58.25 255.031 58.5273 254.609 58.7188C254.188 58.9062 253.691 59 253.121 59ZM261.184 57.916V54.6523C261.184 54.4023 261.133 54.1855 261.031 54.002C260.934 53.8145 260.785 53.6699 260.586 53.5684C260.387 53.4668 260.141 53.416 259.848 53.416C259.574 53.416 259.334 53.4629 259.127 53.5566C258.924 53.6504 258.764 53.7734 258.646 53.9258C258.533 54.0781 258.477 54.2422 258.477 54.418H257.393C257.393 54.1914 257.451 53.9668 257.568 53.7441C257.686 53.5215 257.854 53.3203 258.072 53.1406C258.295 52.957 258.561 52.8125 258.869 52.707C259.182 52.5977 259.529 52.543 259.912 52.543C260.373 52.543 260.779 52.6211 261.131 52.7773C261.486 52.9336 261.764 53.1699 261.963 53.4863C262.166 53.7988 262.268 54.1914 262.268 54.6641V57.6172C262.268 57.8281 262.285 58.0527 262.32 58.291C262.359 58.5293 262.416 58.7344 262.49 58.9062V59H261.359C261.305 58.875 261.262 58.709 261.23 58.502C261.199 58.291 261.184 58.0957 261.184 57.916ZM261.371 55.1562L261.383 55.918H260.287C259.979 55.918 259.703 55.9434 259.461 55.9941C259.219 56.041 259.016 56.1133 258.852 56.2109C258.688 56.3086 258.562 56.4316 258.477 56.5801C258.391 56.7246 258.348 56.8945 258.348 57.0898C258.348 57.2891 258.393 57.4707 258.482 57.6348C258.572 57.7988 258.707 57.9297 258.887 58.0273C259.07 58.1211 259.295 58.168 259.561 58.168C259.893 58.168 260.186 58.0977 260.439 57.957C260.693 57.8164 260.895 57.6445 261.043 57.4414C261.195 57.2383 261.277 57.041 261.289 56.8496L261.752 57.3711C261.725 57.5352 261.65 57.7168 261.529 57.916C261.408 58.1152 261.246 58.3066 261.043 58.4902C260.844 58.6699 260.605 58.8203 260.328 58.9414C260.055 59.0586 259.746 59.1172 259.402 59.1172C258.973 59.1172 258.596 59.0332 258.271 58.8652C257.951 58.6973 257.701 58.4727 257.521 58.1914C257.346 57.9062 257.258 57.5879 257.258 57.2363C257.258 56.8965 257.324 56.5977 257.457 56.3398C257.59 56.0781 257.781 55.8613 258.031 55.6895C258.281 55.5137 258.582 55.3809 258.934 55.291C259.285 55.2012 259.678 55.1562 260.111 55.1562H261.371ZM258.887 60.4414C258.887 60.2656 258.939 60.1172 259.045 59.9961C259.154 59.875 259.314 59.8145 259.525 59.8145C259.732 59.8145 259.891 59.875 260 59.9961C260.113 60.1172 260.17 60.2656 260.17 60.4414C260.17 60.6094 260.113 60.752 260 60.8691C259.891 60.9902 259.732 61.0508 259.525 61.0508C259.314 61.0508 259.154 60.9902 259.045 60.8691C258.939 60.752 258.887 60.6094 258.887 60.4414ZM265.057 54.0137V59H263.973V52.6602H264.998L265.057 54.0137ZM264.799 55.5898L264.348 55.5723C264.352 55.1387 264.416 54.7383 264.541 54.3711C264.666 54 264.842 53.6777 265.068 53.4043C265.295 53.1309 265.564 52.9199 265.877 52.7715C266.193 52.6191 266.543 52.543 266.926 52.543C267.238 52.543 267.52 52.5859 267.77 52.6719C268.02 52.7539 268.232 52.8867 268.408 53.0703C268.588 53.2539 268.725 53.4922 268.818 53.7852C268.912 54.0742 268.959 54.4277 268.959 54.8457V59H267.869V54.834C267.869 54.502 267.82 54.2363 267.723 54.0371C267.625 53.834 267.482 53.6875 267.295 53.5977C267.107 53.5039 266.877 53.457 266.604 53.457C266.334 53.457 266.088 53.5137 265.865 53.627C265.646 53.7402 265.457 53.8965 265.297 54.0957C265.141 54.2949 265.018 54.5234 264.928 54.7812C264.842 55.0352 264.799 55.3047 264.799 55.5898ZM273.576 50H274.666V57.7695L274.572 59H273.576V50ZM278.949 55.7773V55.9004C278.949 56.3613 278.895 56.7891 278.785 57.1836C278.676 57.5742 278.516 57.9141 278.305 58.2031C278.094 58.4922 277.836 58.7168 277.531 58.877C277.227 59.0371 276.877 59.1172 276.482 59.1172C276.08 59.1172 275.727 59.0488 275.422 58.9121C275.121 58.7715 274.867 58.5703 274.66 58.3086C274.453 58.0469 274.287 57.7305 274.162 57.3594C274.041 56.9883 273.957 56.5703 273.91 56.1055V55.5664C273.957 55.0977 274.041 54.6777 274.162 54.3066C274.287 53.9355 274.453 53.6191 274.66 53.3574C274.867 53.0918 275.121 52.8906 275.422 52.7539C275.723 52.6133 276.072 52.543 276.471 52.543C276.869 52.543 277.223 52.6211 277.531 52.7773C277.84 52.9297 278.098 53.1484 278.305 53.4336C278.516 53.7188 278.676 54.0605 278.785 54.459C278.895 54.8535 278.949 55.293 278.949 55.7773ZM277.859 55.9004V55.7773C277.859 55.4609 277.83 55.1641 277.771 54.8867C277.713 54.6055 277.619 54.3594 277.49 54.1484C277.361 53.9336 277.191 53.7656 276.98 53.6445C276.77 53.5195 276.51 53.457 276.201 53.457C275.928 53.457 275.689 53.5039 275.486 53.5977C275.287 53.6914 275.117 53.8184 274.977 53.9785C274.836 54.1348 274.721 54.3145 274.631 54.5176C274.545 54.7168 274.48 54.9238 274.438 55.1387V56.5508C274.5 56.8242 274.602 57.0879 274.742 57.3418C274.887 57.5918 275.078 57.7969 275.316 57.957C275.559 58.1172 275.857 58.1973 276.213 58.1973C276.506 58.1973 276.756 58.1387 276.963 58.0215C277.174 57.9004 277.344 57.7344 277.473 57.5234C277.605 57.3125 277.703 57.0684 277.766 56.791C277.828 56.5137 277.859 56.2168 277.859 55.9004ZM282.951 59.1172C282.51 59.1172 282.109 59.043 281.75 58.8945C281.395 58.7422 281.088 58.5293 280.83 58.2559C280.576 57.9824 280.381 57.6582 280.244 57.2832C280.107 56.9082 280.039 56.498 280.039 56.0527V55.8066C280.039 55.291 280.115 54.832 280.268 54.4297C280.42 54.0234 280.627 53.6797 280.889 53.3984C281.15 53.1172 281.447 52.9043 281.779 52.7598C282.111 52.6152 282.455 52.543 282.811 52.543C283.264 52.543 283.654 52.6211 283.982 52.7773C284.314 52.9336 284.586 53.1523 284.797 53.4336C285.008 53.7109 285.164 54.0391 285.266 54.418C285.367 54.793 285.418 55.2031 285.418 55.6484V56.1348H280.684V55.25H284.334V55.168C284.318 54.8867 284.26 54.6133 284.158 54.3477C284.061 54.082 283.904 53.8633 283.689 53.6914C283.475 53.5195 283.182 53.4336 282.811 53.4336C282.564 53.4336 282.338 53.4863 282.131 53.5918C281.924 53.6934 281.746 53.8457 281.598 54.0488C281.449 54.252 281.334 54.5 281.252 54.793C281.17 55.0859 281.129 55.4238 281.129 55.8066V56.0527C281.129 56.3535 281.17 56.6367 281.252 56.9023C281.338 57.1641 281.461 57.3945 281.621 57.5938C281.785 57.793 281.982 57.9492 282.213 58.0625C282.447 58.1758 282.713 58.2324 283.01 58.2324C283.393 58.2324 283.717 58.1543 283.982 57.998C284.248 57.8418 284.48 57.6328 284.68 57.3711L285.336 57.8926C285.199 58.0996 285.025 58.2969 284.814 58.4844C284.604 58.6719 284.344 58.8242 284.035 58.9414C283.73 59.0586 283.369 59.1172 282.951 59.1172ZM282.289 50L283.42 51.7227H282.488L280.977 50H282.289Z" fill="white"/>
<path d="M331.5 29H347.5M331.5 35H347.5M331.5 41H347.5" stroke="white" stroke-width="3" stroke-linecap="round" stroke-linejoin="round"/>
<path d="M323.779 56.2871H324.904C324.846 56.8262 324.691 57.3086 324.441 57.7344C324.191 58.1602 323.838 58.498 323.381 58.748C322.924 58.9941 322.354 59.1172 321.67 59.1172C321.17 59.1172 320.715 59.0234 320.305 58.8359C319.898 58.6484 319.549 58.3828 319.256 58.0391C318.963 57.6914 318.736 57.2754 318.576 56.791C318.42 56.3027 318.342 55.7598 318.342 55.1621V54.3125C318.342 53.7148 318.42 53.1738 318.576 52.6895C318.736 52.2012 318.965 51.7832 319.262 51.4355C319.562 51.0879 319.924 50.8203 320.346 50.6328C320.768 50.4453 321.242 50.3516 321.77 50.3516C322.414 50.3516 322.959 50.4727 323.404 50.7148C323.85 50.957 324.195 51.293 324.441 51.7227C324.691 52.1484 324.846 52.6426 324.904 53.2051H323.779C323.725 52.8066 323.623 52.4648 323.475 52.1797C323.326 51.8906 323.115 51.668 322.842 51.5117C322.568 51.3555 322.211 51.2773 321.77 51.2773C321.391 51.2773 321.057 51.3496 320.768 51.4941C320.482 51.6387 320.242 51.8438 320.047 52.1094C319.855 52.375 319.711 52.6934 319.613 53.0645C319.516 53.4355 319.467 53.8477 319.467 54.3008V55.1621C319.467 55.5801 319.51 55.9727 319.596 56.3398C319.686 56.707 319.82 57.0293 320 57.3066C320.18 57.584 320.408 57.8027 320.686 57.9629C320.963 58.1191 321.291 58.1973 321.67 58.1973C322.15 58.1973 322.533 58.1211 322.818 57.9688C323.104 57.8164 323.318 57.5977 323.463 57.3125C323.611 57.0273 323.717 56.6855 323.779 56.2871ZM330.02 57.916V54.6523C330.02 54.4023 329.969 54.1855 329.867 54.002C329.77 53.8145 329.621 53.6699 329.422 53.5684C329.223 53.4668 328.977 53.416 328.684 53.416C328.41 53.416 328.17 53.4629 327.963 53.5566C327.76 53.6504 327.6 53.7734 327.482 53.9258C327.369 54.0781 327.312 54.2422 327.312 54.418H326.229C326.229 54.1914 326.287 53.9668 326.404 53.7441C326.521 53.5215 326.689 53.3203 326.908 53.1406C327.131 52.957 327.396 52.8125 327.705 52.707C328.018 52.5977 328.365 52.543 328.748 52.543C329.209 52.543 329.615 52.6211 329.967 52.7773C330.322 52.9336 330.6 53.1699 330.799 53.4863C331.002 53.7988 331.104 54.1914 331.104 54.6641V57.6172C331.104 57.8281 331.121 58.0527 331.156 58.291C331.195 58.5293 331.252 58.7344 331.326 58.9062V59H330.195C330.141 58.875 330.098 58.709 330.066 58.502C330.035 58.291 330.02 58.0957 330.02 57.916ZM330.207 55.1562L330.219 55.918H329.123C328.814 55.918 328.539 55.9434 328.297 55.9941C328.055 56.041 327.852 56.1133 327.688 56.2109C327.523 56.3086 327.398 56.4316 327.312 56.5801C327.227 56.7246 327.184 56.8945 327.184 57.0898C327.184 57.2891 327.229 57.4707 327.318 57.6348C327.408 57.7988 327.543 57.9297 327.723 58.0273C327.906 58.1211 328.131 58.168 328.396 58.168C328.729 58.168 329.021 58.0977 329.275 57.957C329.529 57.8164 329.73 57.6445 329.879 57.4414C330.031 57.2383 330.113 57.041 330.125 56.8496L330.588 57.3711C330.561 57.5352 330.486 57.7168 330.365 57.916C330.244 58.1152 330.082 58.3066 329.879 58.4902C329.68 58.6699 329.441 58.8203 329.164 58.9414C328.891 59.0586 328.582 59.1172 328.238 59.1172C327.809 59.1172 327.432 59.0332 327.107 58.8652C326.787 58.6973 326.537 58.4727 326.357 58.1914C326.182 57.9062 326.094 57.5879 326.094 57.2363C326.094 56.8965 326.16 56.5977 326.293 56.3398C326.426 56.0781 326.617 55.8613 326.867 55.6895C327.117 55.5137 327.418 55.3809 327.77 55.291C328.121 55.2012 328.514 55.1562 328.947 55.1562H330.207ZM328.268 51.7227L329.404 50H330.711L329.141 51.7227H328.268ZM336.869 54.0137V59H335.785V52.6602H336.811L336.869 54.0137ZM336.611 55.5898L336.16 55.5723C336.164 55.1387 336.229 54.7383 336.354 54.3711C336.479 54 336.654 53.6777 336.881 53.4043C337.107 53.1309 337.377 52.9199 337.689 52.7715C338.006 52.6191 338.355 52.543 338.738 52.543C339.051 52.543 339.332 52.5859 339.582 52.6719C339.832 52.7539 340.045 52.8867 340.221 53.0703C340.4 53.2539 340.537 53.4922 340.631 53.7852C340.725 54.0742 340.771 54.4277 340.771 54.8457V59H339.682V54.834C339.682 54.502 339.633 54.2363 339.535 54.0371C339.438 53.834 339.295 53.6875 339.107 53.5977C338.92 53.5039 338.689 53.457 338.416 53.457C338.146 53.457 337.9 53.5137 337.678 53.627C337.459 53.7402 337.27 53.8965 337.109 54.0957C336.953 54.2949 336.83 54.5234 336.74 54.7812C336.654 55.0352 336.611 55.3047 336.611 55.5898ZM343.502 50V59H342.418V50H343.502ZM343.244 55.5898L342.793 55.5723C342.797 55.1387 342.861 54.7383 342.986 54.3711C343.111 54 343.287 53.6777 343.514 53.4043C343.74 53.1309 344.01 52.9199 344.322 52.7715C344.639 52.6191 344.988 52.543 345.371 52.543C345.684 52.543 345.965 52.5859 346.215 52.6719C346.465 52.7539 346.678 52.8867 346.854 53.0703C347.033 53.2539 347.17 53.4922 347.264 53.7852C347.357 54.0742 347.404 54.4277 347.404 54.8457V59H346.314V54.834C346.314 54.502 346.266 54.2363 346.168 54.0371C346.07 53.834 345.928 53.6875 345.74 53.5977C345.553 53.5039 345.322 53.457 345.049 53.457C344.779 53.457 344.533 53.5137 344.311 53.627C344.092 53.7402 343.902 53.8965 343.742 54.0957C343.586 54.2949 343.463 54.5234 343.373 54.7812C343.287 55.0352 343.244 55.3047 343.244 55.5898ZM352.766 57.916V54.6523C352.766 54.4023 352.715 54.1855 352.613 54.002C352.516 53.8145 352.367 53.6699 352.168 53.5684C351.969 53.4668 351.723 53.416 351.43 53.416C351.156 53.416 350.916 53.4629 350.709 53.5566C350.506 53.6504 350.346 53.7734 350.229 53.9258C350.115 54.0781 350.059 54.2422 350.059 54.418H348.975C348.975 54.1914 349.033 53.9668 349.15 53.7441C349.268 53.5215 349.436 53.3203 349.654 53.1406C349.877 52.957 350.143 52.8125 350.451 52.707C350.764 52.5977 351.111 52.543 351.494 52.543C351.955 52.543 352.361 52.6211 352.713 52.7773C353.068 52.9336 353.346 53.1699 353.545 53.4863C353.748 53.7988 353.85 54.1914 353.85 54.6641V57.6172C353.85 57.8281 353.867 58.0527 353.902 58.291C353.941 58.5293 353.998 58.7344 354.072 58.9062V59H352.941C352.887 58.875 352.844 58.709 352.812 58.502C352.781 58.291 352.766 58.0957 352.766 57.916ZM352.953 55.1562L352.965 55.918H351.869C351.561 55.918 351.285 55.9434 351.043 55.9941C350.801 56.041 350.598 56.1133 350.434 56.2109C350.27 56.3086 350.145 56.4316 350.059 56.5801C349.973 56.7246 349.93 56.8945 349.93 57.0898C349.93 57.2891 349.975 57.4707 350.064 57.6348C350.154 57.7988 350.289 57.9297 350.469 58.0273C350.652 58.1211 350.877 58.168 351.143 58.168C351.475 58.168 351.768 58.0977 352.021 57.957C352.275 57.8164 352.477 57.6445 352.625 57.4414C352.777 57.2383 352.859 57.041 352.871 56.8496L353.334 57.3711C353.307 57.5352 353.232 57.7168 353.111 57.916C352.99 58.1152 352.828 58.3066 352.625 58.4902C352.426 58.6699 352.188 58.8203 351.91 58.9414C351.637 59.0586 351.328 59.1172 350.984 59.1172C350.555 59.1172 350.178 59.0332 349.854 58.8652C349.533 58.6973 349.283 58.4727 349.104 58.1914C348.928 57.9062 348.84 57.5879 348.84 57.2363C348.84 56.8965 348.906 56.5977 349.039 56.3398C349.172 56.0781 349.363 55.8613 349.613 55.6895C349.863 55.5137 350.164 55.3809 350.516 55.291C350.867 55.2012 351.26 55.1562 351.693 55.1562H352.953ZM351.939 50L353.393 51.5996V51.6582H352.49L351.611 50.668L350.738 51.6582H349.848V51.5938L351.283 50H351.939ZM356.639 54.0137V59H355.555V52.6602H356.58L356.639 54.0137ZM356.381 55.5898L355.93 55.5723C355.934 55.1387 355.998 54.7383 356.123 54.3711C356.248 54 356.424 53.6777 356.65 53.4043C356.877 53.1309 357.146 52.9199 357.459 52.7715C357.775 52.6191 358.125 52.543 358.508 52.543C358.82 52.543 359.102 52.5859 359.352 52.6719C359.602 52.7539 359.814 52.8867 359.99 53.0703C360.17 53.2539 360.307 53.4922 360.4 53.7852C360.494 54.0742 360.541 54.4277 360.541 54.8457V59H359.451V54.834C359.451 54.502 359.402 54.2363 359.305 54.0371C359.207 53.834 359.064 53.6875 358.877 53.5977C358.689 53.5039 358.459 53.457 358.186 53.457C357.916 53.457 357.67 53.5137 357.447 53.627C357.229 53.7402 357.039 53.8965 356.879 54.0957C356.723 54.2949 356.6 54.5234 356.51 54.7812C356.424 55.0352 356.381 55.3047 356.381 55.5898Z" fill="white"/>
</g>
<defs>
<filter id="filter0_d_1439_11165" x="0" y="0" width="383" height="73" filterUnits="userSpaceOnUse" color-interpolation-filters="sRGB">
<feFlood flood-opacity="0" result="BackgroundImageFix"/>
<feColorMatrix in="SourceAlpha" type="matrix" values="0 0 0 0 0 0 0 0 0 0 0 0 0 0 0 0 0 0 127 0" result="hardAlpha"/>
<feOffset dy="-4"/>
<feGaussianBlur stdDeviation="2"/>
<feComposite in2="hardAlpha" operator="out"/>
<feColorMatrix type="matrix" values="0 0 0 0 0 0 0 0 0 0 0 0 0 0 0 0 0 0 0.05 0"/>
<feBlend mode="normal" in2="BackgroundImageFix" result="effect1_dropShadow_1439_11165"/>
<feBlend mode="normal" in="SourceGraphic" in2="effect1_dropShadow_1439_11165" result="shape"/>
</filter>
<clipPath id="clip0_1439_11165">
<rect width="28" height="26" fill="white" transform="translate(178 19)"/>
</clipPath>
</defs>
</svg>
