<svg width="20" height="18" viewBox="0 0 20 18" fill="none" xmlns="http://www.w3.org/2000/svg">
<path d="M9.5003 10C10.0526 10 10.5003 9.55229 10.5003 9.00001C10.5003 8.44772 10.0526 8.00001 9.5003 8.00001V10ZM3.41872 8.00001C2.86643 8.00001 2.41872 8.44772 2.41872 9.00001C2.41872 9.55229 2.86643 10 3.41872 10V8.00001ZM3.24634 9.79721L4.19461 10.1147L3.24634 9.79721ZM3.40651 9.23098L4.39807 9.36061L3.40651 9.23098ZM3.24829 8.2793L2.2992 8.59431L3.24829 8.2793ZM3.407 8.84594L2.41511 8.97301L3.407 8.84594ZM5.50231 15.7491L5.91268 16.661L5.50231 15.7491ZM2.6078 16.6701L2.33899 17.6332L2.6078 16.6701ZM2.24158 12.7986L1.2933 12.4811H1.2933L2.24158 12.7986ZM1.61359 15.7704L0.681972 16.1339L1.61359 15.7704ZM15.6367 6.81135L15.2263 7.72327L15.6367 6.81135ZM18.1896 8.33514L17.2932 8.77836L18.1896 8.33514ZM15.6367 11.1886L16.0471 12.1005L15.6367 11.1886ZM18.1896 9.66478L19.0861 10.108L18.1896 9.66478ZM5.48483 2.24303L5.07446 3.15495L5.48483 2.24303ZM2.59799 1.32468L2.86605 2.28808L2.59799 1.32468ZM2.22215 5.18767L1.27306 5.50269L2.22215 5.18767ZM1.60365 2.22209L2.53461 2.58722L1.60365 2.22209ZM9.5003 8.00001H3.41872V10H9.5003V8.00001ZM5.07446 3.15495L15.2263 7.72327L16.0471 5.89943L5.89519 1.33111L5.07446 3.15495ZM15.2263 10.2767L5.09195 14.8371L5.91268 16.661L16.0471 12.1005L15.2263 10.2767ZM3.18985 13.116L4.19461 10.1147L2.29806 9.47976L1.2933 12.4811L3.18985 13.116ZM4.19738 7.96428L3.17123 4.87266L1.27306 5.50269L2.2992 8.59431L4.19738 7.96428ZM4.19461 10.1147C4.27677 9.86923 4.3638 9.62278 4.39807 9.36061L2.41494 9.10136C2.41156 9.12722 2.40436 9.16225 2.29806 9.47976L4.19461 10.1147ZM2.2992 8.59431C2.40468 8.9121 2.41179 8.94714 2.41511 8.97301L4.3989 8.71887C4.3653 8.45661 4.27891 8.20994 4.19738 7.96428L2.2992 8.59431ZM4.39807 9.36061C4.42591 9.14762 4.42619 8.93193 4.3989 8.71887L2.41511 8.97301C2.42057 9.01562 2.42051 9.05876 2.41494 9.10136L4.39807 9.36061ZM5.09195 14.8371C4.28342 15.201 3.73922 15.4448 3.33112 15.5862C2.89726 15.7365 2.82305 15.6919 2.87661 15.7069L2.33899 17.6332C2.91585 17.7942 3.4985 17.6448 3.98586 17.476C4.49899 17.2982 5.1404 17.0085 5.91268 16.661L5.09195 14.8371ZM1.2933 12.4811C1.02446 13.2842 0.80012 13.9512 0.674356 14.4795C0.554908 14.9813 0.464303 15.5759 0.681972 16.1339L2.5452 15.407C2.56541 15.4588 2.51365 15.3894 2.61999 14.9427C2.72001 14.5225 2.90839 13.9568 3.18985 13.116L1.2933 12.4811ZM2.87661 15.7069C2.72513 15.6646 2.60236 15.5535 2.5452 15.407L0.681972 16.1339C0.967768 16.8665 1.58158 17.4219 2.33899 17.6332L2.87661 15.7069ZM15.2263 7.72327C16.016 8.07861 16.545 8.31775 16.9119 8.52423C17.3002 8.74274 17.3167 8.82578 17.2932 8.77836L19.0861 7.89193C18.8242 7.36223 18.3357 7.03053 17.8928 6.7813C17.4286 6.52005 16.8004 6.23843 16.0471 5.89943L15.2263 7.72327ZM16.0471 12.1005C16.8004 11.7615 17.4286 11.4799 17.8928 11.2186C18.3357 10.9694 18.8242 10.6377 19.0861 10.108L17.2932 9.22157C17.3167 9.17415 17.3002 9.25718 16.9119 9.47569C16.545 9.68218 16.016 9.92131 15.2263 10.2767L16.0471 12.1005ZM17.2932 8.77836C17.3623 8.91803 17.3623 9.0819 17.2932 9.22157L19.0861 10.108C19.4313 9.40965 19.4313 8.59027 19.0861 7.89193L17.2932 8.77836ZM5.89519 1.33111C5.12531 0.984662 4.48566 0.695758 3.97376 0.518436C3.48729 0.349925 2.90595 0.201 2.32992 0.361277L2.86605 2.28808C2.81282 2.30289 2.88688 2.25854 3.31913 2.40827C3.72593 2.54918 4.26832 2.79219 5.07446 3.15495L5.89519 1.33111ZM3.17123 4.87266C2.89276 4.03366 2.70646 3.46928 2.60786 3.0502C2.50309 2.60492 2.55478 2.53577 2.53461 2.58722L0.672689 1.85697C0.454378 2.4136 0.543109 3.00711 0.661019 3.50826C0.785094 4.0356 1.00711 4.70142 1.27306 5.50269L3.17123 4.87266ZM2.32992 0.361277C1.57323 0.571827 0.959473 1.12575 0.672689 1.85697L2.53461 2.58722C2.59196 2.44097 2.71471 2.33019 2.86605 2.28808L2.32992 0.361277Z" fill="#0176E4"/>
</svg>
