<svg width="77" height="19" viewBox="0 0 77 19" fill="none" xmlns="http://www.w3.org/2000/svg">
<path d="M4.125 0.9375L7.6875 8.71875L11.25 0.9375H15.082L9.46875 11.7891V18H5.90625V11.7891L0.28125 0.9375H4.125ZM30.3047 9.07031V9.87891C30.3047 11.1758 30.1289 12.3398 29.7773 13.3711C29.4258 14.4023 28.9297 15.2812 28.2891 16.0078C27.6484 16.7266 26.8828 17.2773 25.9922 17.6602C25.1094 18.043 24.1289 18.2344 23.0508 18.2344C21.9805 18.2344 21 18.043 20.1094 17.6602C19.2266 17.2773 18.4609 16.7266 17.8125 16.0078C17.1641 15.2812 16.6602 14.4023 16.3008 13.3711C15.9492 12.3398 15.7734 11.1758 15.7734 9.87891V9.07031C15.7734 7.76562 15.9492 6.60156 16.3008 5.57812C16.6523 4.54688 17.1484 3.66797 17.7891 2.94141C18.4375 2.21484 19.2031 1.66016 20.0859 1.27734C20.9766 0.894531 21.957 0.703125 23.0273 0.703125C24.1055 0.703125 25.0859 0.894531 25.9688 1.27734C26.8594 1.66016 27.625 2.21484 28.2656 2.94141C28.9141 3.66797 29.4141 4.54688 29.7656 5.57812C30.125 6.60156 30.3047 7.76562 30.3047 9.07031ZM26.7539 9.87891V9.04688C26.7539 8.14062 26.6719 7.34375 26.5078 6.65625C26.3438 5.96875 26.1016 5.39062 25.7812 4.92188C25.4609 4.45312 25.0703 4.10156 24.6094 3.86719C24.1484 3.625 23.6211 3.50391 23.0273 3.50391C22.4336 3.50391 21.9062 3.625 21.4453 3.86719C20.9922 4.10156 20.6055 4.45312 20.2852 4.92188C19.9727 5.39062 19.7344 5.96875 19.5703 6.65625C19.4062 7.34375 19.3242 8.14062 19.3242 9.04688V9.87891C19.3242 10.7773 19.4062 11.5742 19.5703 12.2695C19.7344 12.957 19.9766 13.5391 20.2969 14.0156C20.6172 14.4844 21.0078 14.8398 21.4688 15.082C21.9297 15.3242 22.457 15.4453 23.0508 15.4453C23.6445 15.4453 24.1719 15.3242 24.6328 15.082C25.0938 14.8398 25.4805 14.4844 25.793 14.0156C26.1055 13.5391 26.3438 12.957 26.5078 12.2695C26.6719 11.5742 26.7539 10.7773 26.7539 9.87891ZM42.2578 0.9375H45.7617V12.2109C45.7617 13.5234 45.4805 14.6289 44.918 15.5273C44.3633 16.4258 43.5938 17.1016 42.6094 17.5547C41.6328 18.0078 40.5078 18.2344 39.2344 18.2344C37.9609 18.2344 36.8281 18.0078 35.8359 17.5547C34.8516 17.1016 34.0781 16.4258 33.5156 15.5273C32.9609 14.6289 32.6836 13.5234 32.6836 12.2109V0.9375H36.1992V12.2109C36.1992 12.9766 36.3203 13.6016 36.5625 14.0859C36.8047 14.5703 37.1523 14.9258 37.6055 15.1523C38.0664 15.3789 38.6094 15.4922 39.2344 15.4922C39.875 15.4922 40.418 15.3789 40.8633 15.1523C41.3164 14.9258 41.6602 14.5703 41.8945 14.0859C42.1367 13.6016 42.2578 12.9766 42.2578 12.2109V0.9375ZM58.0781 0.9375H61.582V12.2109C61.582 13.5234 61.3008 14.6289 60.7383 15.5273C60.1836 16.4258 59.4141 17.1016 58.4297 17.5547C57.4531 18.0078 56.3281 18.2344 55.0547 18.2344C53.7812 18.2344 52.6484 18.0078 51.6562 17.5547C50.6719 17.1016 49.8984 16.4258 49.3359 15.5273C48.7812 14.6289 48.5039 13.5234 48.5039 12.2109V0.9375H52.0195V12.2109C52.0195 12.9766 52.1406 13.6016 52.3828 14.0859C52.625 14.5703 52.9727 14.9258 53.4258 15.1523C53.8867 15.3789 54.4297 15.4922 55.0547 15.4922C55.6953 15.4922 56.2383 15.3789 56.6836 15.1523C57.1367 14.9258 57.4805 14.5703 57.7148 14.0859C57.957 13.6016 58.0781 12.9766 58.0781 12.2109V0.9375ZM73.3594 13.5352C73.3594 13.2305 73.3125 12.957 73.2188 12.7148C73.1328 12.4648 72.9688 12.2383 72.7266 12.0352C72.4844 11.8242 72.1445 11.6172 71.707 11.4141C71.2695 11.2109 70.7031 11 70.0078 10.7812C69.2344 10.5312 68.5 10.25 67.8047 9.9375C67.1172 9.625 66.5078 9.26172 65.9766 8.84766C65.4531 8.42578 65.0391 7.9375 64.7344 7.38281C64.4375 6.82812 64.2891 6.18359 64.2891 5.44922C64.2891 4.73828 64.4453 4.09375 64.7578 3.51562C65.0703 2.92969 65.5078 2.42969 66.0703 2.01562C66.6328 1.59375 67.2969 1.26953 68.0625 1.04297C68.8359 0.816406 69.6836 0.703125 70.6055 0.703125C71.8633 0.703125 72.9609 0.929687 73.8984 1.38281C74.8359 1.83594 75.5625 2.45703 76.0781 3.24609C76.6016 4.03516 76.8633 4.9375 76.8633 5.95312H73.3711C73.3711 5.45312 73.2656 5.01562 73.0547 4.64062C72.8516 4.25781 72.5391 3.95703 72.1172 3.73828C71.7031 3.51953 71.1797 3.41016 70.5469 3.41016C69.9375 3.41016 69.4297 3.50391 69.0234 3.69141C68.6172 3.87109 68.3125 4.11719 68.1094 4.42969C67.9062 4.73438 67.8047 5.07812 67.8047 5.46094C67.8047 5.75 67.875 6.01172 68.0156 6.24609C68.1641 6.48047 68.3828 6.69922 68.6719 6.90234C68.9609 7.10547 69.3164 7.29688 69.7383 7.47656C70.1602 7.65625 70.6484 7.83203 71.2031 8.00391C72.1328 8.28516 72.9492 8.60156 73.6523 8.95312C74.3633 9.30469 74.957 9.69922 75.4336 10.1367C75.9102 10.5742 76.2695 11.0703 76.5117 11.625C76.7539 12.1797 76.875 12.8086 76.875 13.5117C76.875 14.2539 76.7305 14.918 76.4414 15.5039C76.1523 16.0898 75.7344 16.5859 75.1875 16.9922C74.6406 17.3984 73.9883 17.707 73.2305 17.918C72.4727 18.1289 71.625 18.2344 70.6875 18.2344C69.8438 18.2344 69.0117 18.125 68.1914 17.9062C67.3711 17.6797 66.625 17.3398 65.9531 16.8867C65.2891 16.4336 64.7578 15.8555 64.3594 15.1523C63.9609 14.4492 63.7617 13.6172 63.7617 12.6562H67.2891C67.2891 13.1875 67.3711 13.6367 67.5352 14.0039C67.6992 14.3711 67.9297 14.668 68.2266 14.8945C68.5312 15.1211 68.8906 15.2852 69.3047 15.3867C69.7266 15.4883 70.1875 15.5391 70.6875 15.5391C71.2969 15.5391 71.7969 15.4531 72.1875 15.2812C72.5859 15.1094 72.8789 14.8711 73.0664 14.5664C73.2617 14.2617 73.3594 13.918 73.3594 13.5352Z" fill="#0176E4"/>
</svg>
